<?xml version="1.0" encoding="utf-8"?><svg id="icon-comp" image-rendering="auto" baseProfile="basic" version="1.1" style="background-color:#FFF" x="0px" y="0px" width="125" height="125" xmlns="http://www.w3.org/2000/svg" enable-background="new 0 0 125 125" xmlns:xlink="http://www.w3.org/1999/xlink"><g id="Scene-1r1" overflow="visible"><path fill="#35373A" stroke="none" d="M22 53L49 53 49 113 125 113 125 13 0 13 0 113 22 113 22 53M103 53L103 97 51 97 51 53 103 53Z"/><path fill="#FFCB36" stroke="none" d="M110 44L102 22 22 22 14 44 110 44Z"/><g id="Tween-10" transform="matrix(.66 -.32 0 1 31.25 79.5)"><animateTransform attributeName="transform" additive="replace" type="translate" dur="1.458s" keyTimes="0;1" values="23,83.5;23,83.5" fill="freeze"/><animateTransform attributeName="transform" additive="sum" type="skewY" dur="1.458s" keyTimes="0;.114;1" values="-25.867;0;0" fill="freeze"/><animateTransform attributeName="transform" additive="sum" type="scale" dur="1.458s" keyTimes="0;.114;1" values=".733,1;1,1;1,1" fill="freeze"/><animateTransform attributeName="transform" additive="sum" type="scale" dur="1.458s" keyTimes="0;.115;1" values=".9,1;1,1;1,1" fill="freeze"/><animateTransform attributeName="transform" additive="sum" type="translate" dur="1.458s" keyTimes="0;1" values="12.5,0;12.5,0" fill="freeze"/><path fill="#35373A" stroke="none" d="M12.5 -29.5L-12.5 -29.5 -12.5 29.5 12.5 29.5 12.5 -29.5M-10.5 -27.5L10.5 -27.5 10.5 27.5 -10.5 27.5 -10.5 -27.5Z"/></g><g id="tentr1" transform="translate(61.95 44.95)"><g id="Tween-16" transform="translate(-40 8)"><animateTransform attributeName="transform" additive="replace" type="translate" dur="2.083s" keyTimes="0;.26;.34;.42;.48;.54;.58;1" values="-40,0;-40,0;-40,-.017;-40,0;-40,.229;-40,.002;-40,0;-40,0" fill="freeze"/><animateTransform attributeName="transform" additive="sum" type="scale" dur="2.083s" keyTimes="0;.1;.18;.26;.34;.42;.48;.54;.58;1" values="1,1;1,1;1,.844;1,1;1,.896;1,1;1,.922;1,.969;1,1;1,1" fill="freeze"/><animateTransform attributeName="transform" additive="sum" type="translate" dur="2.083s" keyTimes="0;.42;.48;.54;.58;1" values="0,8;0,8;0,8.05;0,8.05;0,8;0,8" fill="freeze"/><path fill="#FFCB36" stroke="none" d="M8 -8L-8 -8 -8 0Q-8 3.35 -5.65 5.65 -3.35 8 0 8 3.3 8 5.65 5.65 7.95 3.4 8 .1L8 -8Z"/></g><g id="Tween-15" transform="translate(-24 8)"><animateTransform attributeName="transform" additive="replace" type="translate" dur="2.083s" keyTimes="0;.24;.32;.4;.46;.52;.56;1" values="-24,0;-24,0;-24,-.017;-24,0;-24,.229;-24,.002;-24,0;-24,0" fill="freeze"/><animateTransform attributeName="transform" additive="sum" type="scale" dur="2.083s" keyTimes="0;.08;.16;.24;.32;.4;.46;.52;.56;1" values="1,1;1,1;1,.844;1,1;1,.896;1,1;1,.922;1,.969;1,1;1,1" fill="freeze"/><animateTransform attributeName="transform" additive="sum" type="translate" dur="2.083s" keyTimes="0;.4;.46;.52;.56;1" values="0,8;0,8;0,8.05;0,8.05;0,8;0,8" fill="freeze"/><path fill="#FFCB36" stroke="none" d="M8 -8L-8 -8 -8 .1Q-7.95 3.4 -5.65 5.65 -3.35 8 0 8 3.3 8 5.65 5.65 7.95 3.4 8 .1L8 -8Z"/></g><g id="Tween-14" transform="translate(-8 8)"><animateTransform attributeName="transform" additive="replace" type="translate" dur="2.083s" keyTimes="0;.22;.3;.38;.44;.5;.54;1" values="-8,0;-8,0;-8,-.017;-8,0;-8,.229;-8,.002;-8,0;-8,0" fill="freeze"/><animateTransform attributeName="transform" additive="sum" type="scale" dur="2.083s" keyTimes="0;.06;.14;.22;.3;.38;.44;.5;.54;1" values="1,1;1,1;1,.844;1,1;1,.896;1,1;1,.922;1,.969;1,1;1,1" fill="freeze"/><animateTransform attributeName="transform" additive="sum" type="translate" dur="2.083s" keyTimes="0;.38;.44;.5;.54;1" values="0,8;0,8;0,8.05;0,8.05;0,8;0,8" fill="freeze"/><path fill="#FFCB36" stroke="none" d="M8 -8L-8 -8 -8 .1Q-7.95 3.4 -5.65 5.65 -3.35 8 0 8 3.3 8 5.65 5.65 7.95 3.4 8 .1L8 -8Z"/></g><g id="Tween-13" transform="translate(8 8)"><animateTransform attributeName="transform" additive="replace" type="translate" dur="2.083s" keyTimes="0;.24;.32;.4;.46;.52;.56;1" values="8,0;8,0;8,-.017;8,0;8,.229;8,.002;8,0;8,0" fill="freeze"/><animateTransform attributeName="transform" additive="sum" type="scale" dur="2.083s" keyTimes="0;.08;.16;.24;.32;.4;.46;.52;.56;1" values="1,1;1,1;1,.844;1,1;1,.896;1,1;1,.922;1,.969;1,1;1,1" fill="freeze"/><animateTransform attributeName="transform" additive="sum" type="translate" dur="2.083s" keyTimes="0;.4;.46;.52;.56;1" values="0,8;0,8;0,8.05;0,8.05;0,8;0,8" fill="freeze"/><path fill="#FFCB36" stroke="none" d="M8 -8L-8 -8 -8 .1Q-7.95 3.4 -5.65 5.65 -3.35 8 0 8 3.3 8 5.65 5.65 7.95 3.4 8 .1L8 -8Z"/></g><g id="Tween-12" transform="translate(24 8)"><animateTransform attributeName="transform" additive="replace" type="translate" dur="2.083s" keyTimes="0;.26;.34;.42;.48;.54;.58;1" values="24,0;24,0;24,-.017;24,0;24,.229;24,.002;24,0;24,0" fill="freeze"/><animateTransform attributeName="transform" additive="sum" type="scale" dur="2.083s" keyTimes="0;.1;.18;.26;.34;.42;.48;.54;.58;1" values="1,1;1,1;1,.844;1,1;1,.896;1,1;1,.922;1,.969;1,1;1,1" fill="freeze"/><animateTransform attributeName="transform" additive="sum" type="translate" dur="2.083s" keyTimes="0;.42;.48;.54;.58;1" values="0,8;0,8;0,8.05;0,8.05;0,8;0,8" fill="freeze"/><path fill="#FFCB36" stroke="none" d="M8 -8L-8 -8 -8 .1Q-7.95 3.4 -5.65 5.65 -3.35 8 0 8 3.3 8 5.65 5.65 7.95 3.4 8 .1L8 -8Z"/></g><g id="Tween-11" transform="translate(40 8)"><animateTransform attributeName="transform" additive="replace" type="translate" dur="2.083s" keyTimes="0;.28;.36;.44;.5;.56;.6;1" values="40,0;40,0;40,-.017;40,0;40,.229;40,.002;40,0;40,0" fill="freeze"/><animateTransform attributeName="transform" additive="sum" type="scale" dur="2.083s" keyTimes="0;.12;.2;.28;.36;.44;.5;.56;.6;1" values="1,1;1,1;1,.844;1,1;1,.896;1,1;1,.922;1,.969;1,1;1,1" fill="freeze"/><animateTransform attributeName="transform" additive="sum" type="translate" dur="2.083s" keyTimes="0;.44;.5;.56;.6;1" values="0,8;0,8;0,8.05;0,8.05;0,8;0,8" fill="freeze"/><path fill="#FFCB36" stroke="none" d="M8 -8L-8 -8 -8 .1Q-7.95 3.4 -5.65 5.65 -3.35 8 0 8 3.3 8 5.65 5.65 8 3.35 8 0L8 -8Z"/></g></g></g></svg>