<?xml version="1.0" encoding="utf-8"?><svg id="icon-eres" image-rendering="auto" baseProfile="basic" version="1.1" style="background-color:#FFF" x="0px" y="0px" width="125" height="125" xmlns="http://www.w3.org/2000/svg" enable-background="new 0 0 125 125" xmlns:xlink="http://www.w3.org/1999/xlink"><defs><g id="Tween 4_0.0" overflow="visible"><g id="cards" transform="translate(47.5 0)"><path fill="#35373A" stroke="none" d="M-93.55 -28.55Q-95 -27.05 -95 -25L-95 25Q-95 27.1 -93.55 28.55 -92.1 30 -90 30L-5 30Q-2.95 30 -1.45 28.55 0 27.1 0 25L0 -25Q0 -27.05 -1.45 -28.55 -2.95 -30 -5 -30L-90 -30Q-92.1 -30 -93.55 -28.55Z"/><path fill="#FFCB36" stroke="none" d="M-68 -6L-79 -6Q-79.85 -6 -80.45 -5.4 -81 -4.85 -81 -4L-81 4Q-81 4.85 -80.45 5.45 -79.85 6 -79 6L-68 6Q-67.15 6 -66.6 5.45 -66 4.85 -66 4L-66 -4Q-66 -4.8 -66.6 -5.4 -67.15 -6 -68 -6Z"/><path id="Layer3_0_1_STROKES" stroke="#FFF" stroke-width="2" stroke-linejoin="miter" stroke-linecap="butt" stroke-miterlimit="4" fill="none" d="M-21 11Q-15.85 11 -13.75 9.5 -11 7.55 -11 2 -11 -5.85 -16.6 -11.4 -22.15 -17 -30 -17 -37.85 -17 -43.45 -11.4 -49 -5.85 -49 2 -49 9.9 -43.45 15.45 -37.85 21 -30 21 -22.55 21 -17.1 15.95"/><path id="Layer4_0_1_STROKES" stroke="#FFF" stroke-width="2" stroke-linejoin="miter" stroke-linecap="butt" stroke-miterlimit="4" fill="none" d="M-39 .75L-30 -8.25 -21 .75"/><path id="Layer5_0_1_STROKES" stroke="#FFF" stroke-width="2" stroke-linejoin="miter" stroke-linecap="butt" stroke-miterlimit="4" fill="none" d="M-27.05 11L-36 11 -36 -2M-20.75 11L-24.5 11"/><path id="Layer6_0_1_STROKES" stroke="#FFF" stroke-width="2" stroke-linejoin="miter" stroke-linecap="butt" stroke-miterlimit="4" fill="none" d="M-24 -2L-24 12"/></g></g><g id="Tween-5" overflow="visible"><path fill="#FFCB36" stroke="none" d="M46.05 -28.55Q44.55 -30 42.5 -30L-42.5 -30Q-44.6 -30 -46.05 -28.55 -47.5 -27.05 -47.5 -25L-47.5 25Q-47.5 27.1 -46.05 28.55 -44.6 30 -42.5 30L42.5 30Q44.55 30 46.05 28.55 47.5 27.1 47.5 25L47.5 -25Q47.5 -27.05 46.05 -28.55Z"/></g><g id="Tween-6" overflow="visible"><path fill="#35373A" stroke="none" d="M46.05 -28.55Q44.55 -30 42.5 -30L-42.5 -30Q-44.6 -30 -46.05 -28.55 -47.5 -27.05 -47.5 -25L-47.5 25Q-47.5 27.1 -46.05 28.55 -44.6 30 -42.5 30L42.5 30Q44.55 30 46.05 28.55 47.5 27.1 47.5 25L47.5 -25Q47.5 -27.05 46.05 -28.55Z"/></g><g id="Tween-7" overflow="visible"><path fill="#FFCB36" stroke="none" d="M46.05 -28.55Q44.55 -30 42.5 -30L-42.5 -30Q-44.6 -30 -46.05 -28.55 -47.5 -27.05 -47.5 -25L-47.5 25Q-47.5 27.1 -46.05 28.55 -44.6 30 -42.5 30L42.5 30Q44.55 30 46.05 28.55 47.5 27.1 47.5 25L47.5 -25Q47.5 -27.05 46.05 -28.55Z"/></g><g id="Tween-8" overflow="visible"><path fill="#35373A" stroke="none" d="M46.05 -28.55Q44.55 -30 42.5 -30L-42.5 -30Q-44.6 -30 -46.05 -28.55 -47.5 -27.05 -47.5 -25L-47.5 25Q-47.5 27.1 -46.05 28.55 -44.6 30 -42.5 30L42.5 30Q44.55 30 46.05 28.55 47.5 27.1 47.5 25L47.5 -25Q47.5 -27.05 46.05 -28.55Z"/></g></defs><g id="Scene-1r1" overflow="visible"><g display="none"><g id="Tween-4f24o24r1" transform="matrix(1 -.001 .001 1 62.9 62.75)"><use xlink:href="#Tween-8"/><use xlink:href="#Tween-7"/><use xlink:href="#Tween-6"/><use xlink:href="#Tween-5"/><use xlink:href="#Tween 4_0.0"/></g><animate attributeName="display" fill="freeze" repeatCount="1" dur="1.042s" keyTimes="0;.96;1" values="none;inline;inline"/></g><g display="none"><g id="Tween-4f23o23r1" transform="matrix(.964 .171 -.171 .964 60.1 58.55)"><use xlink:href="#Tween-8" transform="translate(-.1 -.05)"/><use xlink:href="#Tween-7" transform="translate(0 .1)"/><use xlink:href="#Tween-6" transform="translate(.05 0)"/><use xlink:href="#Tween-5" transform="translate(-.05 0)"/><use xlink:href="#Tween 4_0.0"/></g><animate attributeName="display" fill="freeze" repeatCount="1" dur="1.042s" keyTimes="0;.92;.96;1" values="none;inline;none;none"/></g><g display="none"><g id="Tween-4f22o22r1" transform="matrix(.902 .325 -.325 .902 58.85 55.05)"><use xlink:href="#Tween-8" transform="matrix(1 -.005 .005 1 -.05 .25)"/><use xlink:href="#Tween-7" transform="matrix(1 -.005 .005 1 .05 .3)"/><use xlink:href="#Tween-6" transform="matrix(1 -.001 .001 1 .05 .05)"/><use xlink:href="#Tween-5" transform="translate(-.05 0)"/><use xlink:href="#Tween 4_0.0"/></g><animate attributeName="display" fill="freeze" repeatCount="1" dur="1.042s" keyTimes="0;.88;.92;1" values="none;inline;none;none"/></g><g display="none"><g id="Tween-4f21o21r1" transform="matrix(.82 .456 -.456 .82 58.7 52.4)"><use xlink:href="#Tween-8" transform="matrix(1 -.014 .014 1 .1 .55)"/><use xlink:href="#Tween-7" transform="matrix(1 -.009 .009 1 .1 .55)"/><use xlink:href="#Tween-6" transform="matrix(1 -.005 .005 1 .1 .2)"/><use xlink:href="#Tween-5" transform="matrix(1 -.001 .001 1 0 .1)"/><use xlink:href="#Tween 4_0.0"/></g><animate attributeName="display" fill="freeze" repeatCount="1" dur="1.042s" keyTimes="0;.84;.88;1" values="none;inline;none;none"/></g><g display="none"><g id="Tween-4f20o20r1" transform="matrix(.725 .568 -.568 .725 59.4 50.4)"><use xlink:href="#Tween-8" transform="matrix(1 -.026 .026 1 .25 1.1)"/><use xlink:href="#Tween-7" transform="matrix(1 -.018 .018 1 .2 .95)"/><use xlink:href="#Tween-6" transform="matrix(1 -.013 .013 1 .2 .5)"/><use xlink:href="#Tween-5" transform="matrix(1 -.005 .005 1 0 .2)"/><use xlink:href="#Tween 4_0.0"/></g><animate attributeName="display" fill="freeze" repeatCount="1" dur="1.042s" keyTimes="0;.8;.84;1" values="none;inline;none;none"/></g><g display="none"><g id="Tween-4f19o19r1" transform="matrix(.621 .656 -.656 .621 60.7 49.45)"><use xlink:href="#Tween-8" transform="matrix(1 -.04 .04 1 .45 1.8)"/><use xlink:href="#Tween-7" transform="matrix(1 -.031 .031 1 .4 1.5)"/><use xlink:href="#Tween-6" transform="matrix(1 -.022 .022 1 .3 .9)"/><use xlink:href="#Tween-5" transform="matrix(1 -.009 .009 1 .15 .4)"/><use xlink:href="#Tween 4_0.0"/></g><animate attributeName="display" fill="freeze" repeatCount="1" dur="1.042s" keyTimes="0;.76;.8;1" values="none;inline;none;none"/></g><g display="none"><g id="Tween-4f18o18r1" transform="matrix(.513 .723 -.723 .513 62.3 49.25)"><use xlink:href="#Tween-8" transform="matrix(.998 -.058 .058 .998 .7 2.45)"/><use xlink:href="#Tween-7" transform="matrix(1 -.044 .044 1 .55 2.05)"/><use xlink:href="#Tween-6" transform="matrix(1 -.031 .031 1 .4 1.25)"/><use xlink:href="#Tween-5" transform="matrix(1 -.014 .014 1 .25 .55)"/><use xlink:href="#Tween 4_0.0"/></g><animate attributeName="display" fill="freeze" repeatCount="1" dur="1.042s" keyTimes="0;.72;.76;1" values="none;inline;none;none"/></g><g display="none"><g id="Tween-4f17o17r1" transform="matrix(.407 .771 -.771 .407 64.25 49.75)"><use xlink:href="#Tween-8" transform="matrix(.997 -.079 .079 .997 1.05 3.45)"/><use xlink:href="#Tween-7" transform="matrix(.998 -.061 .061 .998 .85 2.8)"/><use xlink:href="#Tween-6" transform="matrix(1 -.044 .044 1 .65 1.7)"/><use xlink:href="#Tween-5" transform="matrix(1 -.022 .022 1 .3 .85)"/><use xlink:href="#Tween 4_0.0"/></g><animate attributeName="display" fill="freeze" repeatCount="1" dur="1.042s" keyTimes="0;.68;.72;1" values="none;inline;none;none"/></g><g display="none"><g id="Tween-4f16o16r1" transform="matrix(.301 .802 -.802 .301 66.25 50.85)"><use xlink:href="#Tween-8" transform="matrix(.994 -.105 .105 .994 1.4 4.5)"/><use xlink:href="#Tween-7" transform="matrix(.997 -.079 .079 .997 1.05 3.65)"/><use xlink:href="#Tween-6" transform="matrix(.998 -.057 .057 .998 .8 2.3)"/><use xlink:href="#Tween-5" transform="matrix(1 -.027 .027 1 .4 1.05)"/><use xlink:href="#Tween 4_0.0"/></g><animate attributeName="display" fill="freeze" repeatCount="1" dur="1.042s" keyTimes="0;.64;.68;1" values="none;inline;none;none"/></g><g display="none"><g id="Tween-4f15o15r1" transform="matrix(.204 .818 -.818 .204 68.05 52.55)"><use xlink:href="#Tween-8" transform="matrix(.99 -.135 .135 .99 1.95 5.75)"/><use xlink:href="#Tween-7" transform="matrix(.995 -.101 .101 .995 1.5 4.5)"/><use xlink:href="#Tween-6" transform="matrix(.997 -.071 .071 .997 1 2.8)"/><use xlink:href="#Tween-5" transform="matrix(1 -.035 .035 1 .55 1.4)"/><use xlink:href="#Tween 4_0.0"/></g><animate attributeName="display" fill="freeze" repeatCount="1" dur="1.042s" keyTimes="0;.6;.64;1" values="none;inline;none;none"/></g><g display="none"><g id="Tween-4f14o14r1" transform="matrix(.109 .824 -.824 .109 69.9 54.55)"><use xlink:href="#Tween-8" transform="matrix(.986 -.166 .166 .986 2.5 7.05)"/><use xlink:href="#Tween-7" transform="matrix(.992 -.127 .127 .992 1.9 5.6)"/><use xlink:href="#Tween-6" transform="matrix(.996 -.088 .088 .996 1.25 3.4)"/><use xlink:href="#Tween-5" transform="matrix(1 -.044 .044 1 .7 1.7)"/><use xlink:href="#Tween 4_0.0"/></g><animate attributeName="display" fill="freeze" repeatCount="1" dur="1.042s" keyTimes="0;.56;.6;1" values="none;inline;none;none"/></g><g display="none"><g id="Tween-4f13o13r1" transform="matrix(.026 .819 -.819 .026 71.45 56.9)"><use xlink:href="#Tween-8" transform="matrix(.979 -.2 .2 .979 3.15 8.45)"/><use xlink:href="#Tween-7" transform="matrix(.988 -.153 .153 .988 2.4 6.65)"/><use xlink:href="#Tween-6" transform="matrix(.994 -.109 .109 .994 1.65 4.25)"/><use xlink:href="#Tween-5" transform="matrix(.998 -.053 .053 .998 .85 2.1)"/><use xlink:href="#Tween 4_0.0"/></g><animate attributeName="display" fill="freeze" repeatCount="1" dur="1.042s" keyTimes="0;.52;.56;1" values="none;inline;none;none"/></g><g display="none"><g id="Tween-4f12o12r1" transform="matrix(-.049 .807 -.807 -.049 72.85 59.5)"><use xlink:href="#Tween-8" transform="matrix(.97 -.238 .238 .97 3.95 10.05)"/><use xlink:href="#Tween-7" transform="matrix(.983 -.182 .182 .983 2.9 7.9)"/><use xlink:href="#Tween-6" transform="matrix(.991 -.127 .127 .991 2 4.95)"/><use xlink:href="#Tween-5" transform="matrix(.998 -.062 .062 .998 1.05 2.45)"/><use xlink:href="#Tween 4_0.0"/></g><animate attributeName="display" fill="freeze" repeatCount="1" dur="1.042s" keyTimes="0;.48;.52;1" values="none;inline;none;none"/></g><g display="none"><g id="Tween-4f11o11r1" transform="matrix(-.118 .789 -.789 -.118 74.05 62.1)"><use xlink:href="#Tween-8" transform="matrix(.959 -.28 .28 .959 4.95 11.7)"/><use xlink:href="#Tween-7" transform="matrix(.976 -.213 .213 .976 3.55 9.2)"/><use xlink:href="#Tween-6" transform="matrix(.988 -.152 .152 .988 2.3 5.95)"/><use xlink:href="#Tween-5" transform="matrix(.997 -.075 .075 .997 1.3 2.9)"/><use xlink:href="#Tween 4_0.0"/></g><animate attributeName="display" fill="freeze" repeatCount="1" dur="1.042s" keyTimes="0;.44;.48;1" values="none;inline;none;none"/></g><g display="none"><g id="Tween-4f10o10r1" transform="matrix(-.178 .768 -.768 -.178 75 64.65)"><use xlink:href="#Tween-8" transform="matrix(.946 -.322 .322 .946 6 13.4)"/><use xlink:href="#Tween-7" transform="matrix(.968 -.247 .247 .968 4.25 10.55)"/><use xlink:href="#Tween-6" transform="matrix(.984 -.175 .175 .984 2.7 6.85)"/><use xlink:href="#Tween-5" transform="matrix(.996 -.088 .088 .996 1.55 3.4)"/><use xlink:href="#Tween 4_0.0"/></g><animate attributeName="display" fill="freeze" repeatCount="1" dur="1.042s" keyTimes="0;.4;.44;1" values="none;inline;none;none"/></g><g display="none"><g id="Tween-4f9o9r1" transform="matrix(-.229 .745 -.745 -.229 75.85 67.3)"><use xlink:href="#Tween-8" transform="matrix(.929 -.367 .367 .929 7.15 15.25)"/><use xlink:href="#Tween-7" transform="matrix(.959 -.281 .281 .959 5.1 11.85)"/><use xlink:href="#Tween-6" transform="matrix(.979 -.2 .2 .979 3.25 7.8)"/><use xlink:href="#Tween-5" transform="matrix(.995 -.101 .101 .995 1.75 3.85)"/><use xlink:href="#Tween 4_0.0"/></g><animate attributeName="display" fill="freeze" repeatCount="1" dur="1.042s" keyTimes="0;.36;.4;1" values="none;inline;none;none"/></g><g display="none"><g id="Tween-4f8o8r1" transform="matrix(-.274 .722 -.722 -.274 76.5 69.75)"><use xlink:href="#Tween-8" transform="matrix(.908 -.415 .415 .908 8.55 17.05)"/><use xlink:href="#Tween-7" transform="matrix(.946 -.321 .321 .946 6.05 13.4)"/><use xlink:href="#Tween-6" transform="matrix(.973 -.23 .23 .973 3.85 8.85)"/><use xlink:href="#Tween-5" transform="matrix(.993 -.114 .114 .993 2.05 4.4)"/><use xlink:href="#Tween 4_0.0"/></g><animate attributeName="display" fill="freeze" repeatCount="1" dur="1.042s" keyTimes="0;.32;.36;1" values="none;inline;none;none"/></g><g display="none"><g id="Tween-4f7o7r1" transform="matrix(-.312 .699 -.699 -.312 77.05 71.95)"><use xlink:href="#Tween-8" transform="matrix(.883 -.466 .466 .883 10.15 18.95)"/><use xlink:href="#Tween-7" transform="matrix(.932 -.359 .359 .932 7.05 14.85)"/><use xlink:href="#Tween-6" transform="matrix(.965 -.259 .259 .965 4.55 9.95)"/><use xlink:href="#Tween-5" transform="matrix(.991 -.131 .131 .991 2.4 5)"/><use xlink:href="#Tween 4_0.0"/></g><animate attributeName="display" fill="freeze" repeatCount="1" dur="1.042s" keyTimes="0;.28;.32;1" values="none;inline;none;none"/></g><g display="none"><g id="Tween-4f6o6r1" transform="matrix(-.343 .678 -.678 -.343 77.35 74)"><use xlink:href="#Tween-8" transform="matrix(.855 -.516 .516 .855 11.75 20.9)"/><use xlink:href="#Tween-7" transform="matrix(.915 -.4 .4 .915 8.2 16.3)"/><use xlink:href="#Tween-6" transform="matrix(.956 -.289 .289 .956 5.2 11.05)"/><use xlink:href="#Tween-5" transform="matrix(.989 -.144 .144 .989 2.7 5.55)"/><use xlink:href="#Tween 4_0.0"/></g><animate attributeName="display" fill="freeze" repeatCount="1" dur="1.042s" keyTimes="0;.24;.28;1" values="none;inline;none;none"/></g><g display="none"><g id="Tween-4f5o5r1" transform="matrix(-.369 .658 -.658 -.369 77.7 75.75)"><use xlink:href="#Tween-8" transform="matrix(.822 -.567 .567 .822 13.7 22.7)"/><use xlink:href="#Tween-7" transform="matrix(.895 -.443 .443 .895 9.5 17.9)"/><use xlink:href="#Tween-6" transform="matrix(.946 -.322 .322 .946 6 12.3)"/><use xlink:href="#Tween-5" transform="matrix(.986 -.161 .161 .986 3 6.15)"/><use xlink:href="#Tween 4_0.0"/></g><animate attributeName="display" fill="freeze" repeatCount="1" dur="1.042s" keyTimes="0;.2;.24;1" values="none;inline;none;none"/></g><g display="none"><g id="Tween-4f4o4r1" transform="matrix(-.388 .642 -.642 -.388 77.8 77.25)"><use xlink:href="#Tween-8" transform="matrix(.781 -.622 .622 .781 15.9 24.7)"/><use xlink:href="#Tween-7" transform="matrix(.871 -.489 .489 .871 10.95 19.4)"/><use xlink:href="#Tween-6" transform="matrix(.934 -.355 .355 .934 6.9 13.4)"/><use xlink:href="#Tween-5" transform="matrix(.983 -.179 .179 .983 3.45 6.75)"/><use xlink:href="#Tween 4_0.0"/></g><animate attributeName="display" fill="freeze" repeatCount="1" dur="1.042s" keyTimes="0;.16;.2;1" values="none;inline;none;none"/></g><g display="none"><g id="Tween-4f3o3r1" transform="matrix(-.405 .628 -.628 -.405 78 78.4)"><use xlink:href="#Tween-8" transform="matrix(.737 -.673 .673 .737 18.15 26.55)"/><use xlink:href="#Tween-7" transform="matrix(.844 -.534 .534 .844 12.5 20.95)"/><use xlink:href="#Tween-6" transform="matrix(.921 -.388 .388 .921 7.75 14.6)"/><use xlink:href="#Tween-5" transform="matrix(.98 -.196 .196 .98 3.85 7.3)"/><use xlink:href="#Tween 4_0.0"/></g><animate attributeName="display" fill="freeze" repeatCount="1" dur="1.042s" keyTimes="0;.12;.16;1" values="none;inline;none;none"/></g><g display="none"><g id="Tween-4f2o2r1" transform="matrix(-.415 .619 -.619 -.415 78.1 79.25)"><use xlink:href="#Tween-8" transform="matrix(.686 -.726 .726 .686 20.8 28.25)"/><use xlink:href="#Tween-7" transform="matrix(.814 -.578 .578 .814 14.1 22.4)"/><use xlink:href="#Tween-6" transform="matrix(.905 -.423 .423 .905 8.8 15.8)"/><use xlink:href="#Tween-5" transform="matrix(.975 -.217 .217 .975 4.35 8.15)"/><use xlink:href="#Tween 4_0.0"/></g><animate attributeName="display" fill="freeze" repeatCount="1" dur="1.042s" keyTimes="0;.08;.12;1" values="none;inline;none;none"/></g><g display="none"><g id="Tween-4f1o1r1" transform="matrix(-.42 .614 -.614 -.42 78.05 79.7)"><use xlink:href="#Tween-8" transform="matrix(.63 -.775 .775 .63 23.5 29.9)"/><use xlink:href="#Tween-7" transform="matrix(.778 -.626 .626 .778 16 23.8)"/><use xlink:href="#Tween-6" transform="matrix(.885 -.462 .462 .885 10 17.15)"/><use xlink:href="#Tween-5" transform="matrix(.971 -.238 .238 .971 4.9 8.85)"/><use xlink:href="#Tween 4_0.0"/></g><animate attributeName="display" fill="freeze" repeatCount="1" dur="1.042s" keyTimes="0;.04;.08;1" values="none;inline;none;none"/></g><g><g id="Tween-4f0r1" transform="matrix(-.424 .612 -.612 -.424 78.1 79.9)"><use xlink:href="#Tween-8" transform="matrix(.567 -.824 .824 .567 26.55 31.4)"/><use xlink:href="#Tween-7" transform="matrix(.741 -.672 .672 .741 17.9 25.15)"/><use xlink:href="#Tween-6" transform="matrix(.866 -.5 .5 .866 11.2 18.45)"/><use xlink:href="#Tween-5" transform="matrix(.966 -.259 .259 .966 5.4 9.6)"/><use xlink:href="#Tween 4_0.0"/></g><animate attributeName="display" fill="freeze" repeatCount="1" dur="1.042s" keyTimes="0;.04;1" values="inline;none;none"/></g></g></svg>