<?xml version="1.0" encoding="utf-8"?>
<!-- Generator: Adobe Illustrator 16.0.0, SVG Export Plug-In . SVG Version: 6.00 Build 0)  -->
<!DOCTYPE svg PUBLIC "-//W3C//DTD SVG 1.1//EN" "http://www.w3.org/Graphics/SVG/1.1/DTD/svg11.dtd">
<svg version="1.1" id="Layer_1" xmlns="http://www.w3.org/2000/svg" xmlns:xlink="http://www.w3.org/1999/xlink" x="0px" y="0px"
	 width="125px" height="125px" viewBox="0 -12.5 125 125" enable-background="new 0 -12.5 125 125" xml:space="preserve">
<title>icon-company</title>
<desc>Created with Sketch.</desc>
<g id="Page-1">
	<g id="icon-company" transform="translate(0.000000, -19.000000)">
		<rect id="Rectangle" y="6.5" fill="none" width="125" height="125"/>
		<path id="Rectangle-15" fill="#35373A" d="M0,25.5h125v100H0V25.5z M22,65.5v60h27v-60H22z M51,65.5v44h52v-44H51z"/>
		<path id="Oval-3-Copy-2" fill="#FFCB05" d="M62,65.5H46c0,4.418-3.582,8-8,8s-8-3.582-8-8l0,0c0,4.418-3.582,8-8,8s-8-3.582-8-8
			v-8h96v8c0,4.418-3.582,8-8,8s-8-3.582-8-8l0,0c0,4.418-3.582,8-8,8s-8-3.582-8-8l0,0c0,4.418-3.582,8-8,8S62,69.918,62,65.5
			L62,65.5c0,4.418-3.582,8-8,8s-8-3.582-8-8H62z M14,57.5h96v6H14V57.5z"/>
		<polygon id="Rectangle-Copy-2" fill="#FFCB05" points="22,34.5 102,34.5 110,56.5 14,56.5 		"/>
	</g>
</g>
</svg>
