<?xml version="1.0" encoding="utf-8"?><svg id="icon-pass-animated2" image-rendering="auto" baseProfile="basic" version="1.1" x="0px" y="0px" width="125" height="125" xmlns="http://www.w3.org/2000/svg" xmlns:xlink="http://www.w3.org/1999/xlink"><g id="Scene-1r1" overflow="visible"><g transform="translate(63 62)" id="Tween-1"><path fill="#FFF" stroke="none" d="M36.55 -49.55Q35.05 -51 33 -51L-38 -51 -38 51 33 51Q35.05 51 36.55 49.55 38 48.1 38 46L38 -46Q38 -48.05 36.55 -49.55Z"/><path id="Layer23_0_1_STROKES1" stroke="#35373A" stroke-width="1" stroke-linejoin="round" stroke-linecap="round" fill="none" d="M-38 -51L33 -51Q35.05 -51 36.55 -49.55 38 -48.05 38 -46L38 46Q38 48.1 36.55 49.55 35.05 51 33 51L-38 51 -38 -51Z"/><animateTransform attributeName="transform" additive="replace" type="translate" dur="1.458s" keyTimes="0;.257;.686;.972;1" values="25,62;63.716,79.628;63.716,79.628;25,62;25,62" fill="freeze"/><animateTransform attributeName="transform" additive="sum" type="skewY" dur="1.458s" keyTimes="0;.257;.686;.972;1" values="0;-17.253;-10.282;0;0" fill="freeze"/><animateTransform attributeName="transform" additive="sum" type="scale" dur="1.458s" keyTimes="0;.257;.686;.972;1" values="1,1;.735,.835;.841,.901;1,1;1,1" fill="freeze"/><animateTransform attributeName="transform" additive="sum" type="scale" dur="1.458s" keyTimes="0;.257;.686;.972;1" values="1,1;.955,1;.984,1;1,1;1,1" fill="freeze"/><animateTransform attributeName="transform" additive="sum" type="translate" dur="1.458s" keyTimes="0;.257;.686;.972;1" values="38,0;38.5,.8;38.5,.8;38,0;38,0" fill="freeze"/></g><g display="none"><g transform="matrix(-.008 -.208 0 .906 48.65 73.45)" id="front"><path fill="#35373A" stroke="none" d="M74.6 -49.55Q73.1 -51 71.05 -51L.05 -51 .05 51 71.05 51Q73.1 51 74.6 49.55 76.05 48.1 76.05 46L76.05 -46Q76.05 -48.05 74.6 -49.55Z"/><path fill="#F7CC46" stroke="none" d="M40.15 34.9Q39.3 34 38.05 34 36.8 34 35.9 34.9 35.05 35.75 35.05 37 35.05 38.3 35.9 39.15 36.8 40 38.05 40 39.3 40 40.15 39.15 41.05 38.25 41.05 37 41.05 35.75 40.15 34.9M42.95 36L50.05 36 50.05 30 26.05 30 26.05 36 33.1 36Q33.5 34.3 34.85 33.15 36.25 32 38.05 32 39.85 32 41.2 33.15 42.55 34.3 42.95 36M50.05 38L42.95 38Q42.55 39.75 41.2 40.85 39.85 42 38.05 42 36.25 42 34.85 40.85 33.5 39.75 33.1 38L26.05 38 26.05 44 50.05 44 50.05 38Z"/><path id="Layer26_0_1_STROKES1" stroke="#FFF" stroke-width="2" stroke-linejoin="miter" stroke-linecap="butt" stroke-miterlimit="4" fill="none" d="M38.55 -39Q46.6 -39 52.35 -33.3 58.05 -27.55 58.05 -19.5 58.05 -11.4 52.35 -5.7 46.6 0 38.55 0 30.45 0 24.75 -5.7 19.05 -11.4 19.05 -19.5 19.05 -27.55 24.75 -33.3 30.45 -39 38.55 -39Z"/><path fill="#FFF" stroke="none" d="M19.05 -20L19.05 -18 59.05 -18 59.05 -20 19.05 -20Z"/><path id="Layer28_0_1_STROKES1" stroke="#FFF" stroke-width="2" stroke-linejoin="miter" stroke-linecap="butt" stroke-miterlimit="4" fill="none" d="M38.55 -39Q41.65 -39 43.85 -33.3 46.05 -27.55 46.05 -19.5 46.05 -11.4 43.85 -5.7 41.65 0 38.55 0 35.45 0 33.25 -5.7 31.05 -11.4 31.05 -19.5 31.05 -27.55 33.25 -33.3 35.45 -39 38.55 -39Z"/><animateTransform attributeName="transform" additive="replace" type="translate" dur="1.458s" keyTimes="0;.8;.857;.914;.972;1" values="48.65,73.506;48.65,73.506;40.756,69.86;32.953,66.15;25,62;25,62" fill="freeze"/><animateTransform attributeName="transform" additive="sum" type="skewY" dur="1.458s" keyTimes="0;.8;.857;.914;.972;1" values="-92.104;-92.104;-50.451;-12.492;0;0" fill="freeze"/><animateTransform attributeName="transform" additive="sum" type="scale" dur="1.458s" keyTimes="0;.8;.857;.914;.972;1" values=".209,.906;.209,.906;.354,.938;.627,.969;1,1;1,1" fill="freeze"/><animateTransform attributeName="transform" additive="sum" type="scale" dur="1.458s" keyTimes="0;.8;.855;.857;.914;.972;1" values="-.037,1;-.037,1;0,1;.637,1;.976,1;1,1;1,1" keySplines="0 0 1 1;0 0 1 1;.25 .5 .5 1;0 0 1 1;0 0 1 1;0 0 1 1" calcMode="spline" fill="freeze"/><animateTransform attributeName="transform" additive="sum" type="translate" dur="1.458s" keyTimes="0;.8;.857;.914;.972;1" values=".05,-.05;.05,-.05;-.25,-.35;-.25,-.5;0,0;0,0" fill="freeze"/></g><animate attributeName="display" fill="freeze" repeatCount="1" dur="1.458s" keyTimes="0;.8;1" values="none;inline;inline"/></g><g><g transform="translate(25 62)" id="front"><path fill="#35373A" stroke="none" d="M74.6 -49.55Q73.1 -51 71.05 -51L.05 -51 .05 51 71.05 51Q73.1 51 74.6 49.55 76.05 48.1 76.05 46L76.05 -46Q76.05 -48.05 74.6 -49.55Z"/><path fill="#F7CC46" stroke="none" d="M40.15 34.9Q39.3 34 38.05 34 36.8 34 35.9 34.9 35.05 35.75 35.05 37 35.05 38.3 35.9 39.15 36.8 40 38.05 40 39.3 40 40.15 39.15 41.05 38.25 41.05 37 41.05 35.75 40.15 34.9M42.95 36L50.05 36 50.05 30 26.05 30 26.05 36 33.1 36Q33.5 34.3 34.85 33.15 36.25 32 38.05 32 39.85 32 41.2 33.15 42.55 34.3 42.95 36M50.05 38L42.95 38Q42.55 39.75 41.2 40.85 39.85 42 38.05 42 36.25 42 34.85 40.85 33.5 39.75 33.1 38L26.05 38 26.05 44 50.05 44 50.05 38Z"/><path id="Layer26_0_1_STROKES2" stroke="#FFF" stroke-width="2" stroke-linejoin="miter" stroke-linecap="butt" stroke-miterlimit="4" fill="none" d="M38.55 -39Q46.6 -39 52.35 -33.3 58.05 -27.55 58.05 -19.5 58.05 -11.4 52.35 -5.7 46.6 0 38.55 0 30.45 0 24.75 -5.7 19.05 -11.4 19.05 -19.5 19.05 -27.55 24.75 -33.3 30.45 -39 38.55 -39Z"/><path fill="#FFF" stroke="none" d="M19.05 -20L19.05 -18 59.05 -18 59.05 -20 19.05 -20Z"/><path id="Layer28_0_1_STROKES2" stroke="#FFF" stroke-width="2" stroke-linejoin="miter" stroke-linecap="butt" stroke-miterlimit="4" fill="none" d="M38.55 -39Q41.65 -39 43.85 -33.3 46.05 -27.55 46.05 -19.5 46.05 -11.4 43.85 -5.7 41.65 0 38.55 0 35.45 0 33.25 -5.7 31.05 -11.4 31.05 -19.5 31.05 -27.55 33.25 -33.3 35.45 -39 38.55 -39Z"/><animateTransform attributeName="transform" additive="replace" type="translate" dur="1.458s" keyTimes="0;.057;.114;.171;1" values="25,62;33.7,66.148;42.254,69.27;50.65,73.506;50.65,73.506" fill="freeze"/><animateTransform attributeName="transform" additive="sum" type="skewY" dur="1.458s" keyTimes="0;.057;.114;.171;1" values="0;-17.084;-52.262;-92.104;-92.104" fill="freeze"/><animateTransform attributeName="transform" additive="sum" type="scale" dur="1.458s" keyTimes="0;.057;.114;.171;1" values="1,1;.571,.963;.354,.934;.209,.906;.209,.906" fill="freeze"/><animateTransform attributeName="transform" additive="sum" type="scale" dur="1.458s" keyTimes="0;.057;.115;.169;.171;1" values="1,1;.956,1;.612,1;0,1;-.037,1;-.037,1" keySplines="0 0 1 1;0 0 1 1;0 0 1 1;.25 .5 .5 1;0 0 1 1" calcMode="spline" fill="freeze"/><animateTransform attributeName="transform" additive="sum" type="translate" dur="1.458s" keyTimes="0;.057;.114;.171;1" values="0,0;0,-.05;-.25,-.15;.05,-.05;.05,-.05" fill="freeze"/></g><animate attributeName="display" fill="freeze" repeatCount="1" dur="1.458s" keyTimes="0;.2;1" values="inline;none;none"/></g><g display="none"><g transform="matrix(-.009 -.166 0 .886 50.45 67.05)" id="Tween-1"><path fill="#FFF" stroke="none" d="M36.55 -49.55Q35.05 -51 33 -51L-38 -51 -38 51 33 51Q35.05 51 36.55 49.55 38 48.1 38 46L38 -46Q38 -48.05 36.55 -49.55Z"/><path id="Layer23_0_1_STROKES2" stroke="#35373A" stroke-width="1" stroke-linejoin="round" stroke-linecap="round" fill="none" d="M-38 -51L33 -51Q35.05 -51 36.55 -49.55 38 -48.05 38 -46L38 46Q38 48.1 36.55 49.55 35.05 51 33 51L-38 51 -38 -51Z"/><animateTransform attributeName="transform" additive="replace" type="translate" dur="1.458s" keyTimes="0;.171;.257;.686;.772;1" values="50.801,73.101;50.801,73.101;64.42,79.681;64.42,79.681;52.6,74.248;52.6,74.248" fill="freeze"/><animateTransform attributeName="transform" additive="sum" type="skewY" dur="1.458s" keyTimes="0;.171;.257;.686;.772;1" values="-93.154;-93.154;-162.747;-162.747;-93.154;-93.154" fill="freeze"/><animateTransform attributeName="transform" additive="sum" type="scale" dur="1.458s" keyTimes="0;.171;.257;.686;.772;1" values=".166,.886;.166,.886;.735,.835;.735,.835;.166,.886;.166,.886" fill="freeze"/><animateTransform attributeName="transform" additive="sum" type="scale" dur="1.458s" keyTimes="0;.171;.257;.686;.772;1" values="-.055,1;-.055,1;-.955,1;-.955,1;-.055,1;-.055,1" fill="freeze"/><animateTransform attributeName="transform" additive="sum" type="translate" dur="1.458s" keyTimes="0;.171;.257;.686;.772;1" values="38.35,.35;38.35,.35;38.55,.75;38.55,.75;38.3,.4;38.3,.4" fill="freeze"/></g><animate attributeName="display" fill="freeze" repeatCount="1" dur="1.458s" keyTimes="0;.171;.8;1" values="none;inline;none;none"/></g><g display="none"><path id="Layer22_0_1_STROKES" stroke="#35373A" stroke-width="1" stroke-linejoin="round" stroke-linecap="round" fill="none" d="M82.5 46Q82.5 43.55 84.25 41.3 85.95 39.05 88.4 38.3 90.85 37.5 92.6 38.75 94.3 39.9 94.3 42.35 94.3 44.8 92.6 47.1 90.85 49.3 88.4 50.1 85.95 50.85 84.25 49.65 82.5 48.45 82.5 46ZM106.15 63.65L94.3 55.45 101.55 45.95 113.4 54.15 106.15 63.65ZM93.35 66.3L93.6 69.7 96.05 66.5M93.6 69.7L97.05 68.85M96.85 73.15L89.1 75.6 86.7 78.7M98.2 93.15Q98.2 90.25 100.3 87.55 102.35 84.85 105.25 83.95 108.15 83.05 110.25 84.5 112.3 85.9 112.3 88.8 112.3 91.7 110.25 94.45 108.15 97.15 105.25 98.05 102.35 98.95 100.3 97.5 98.2 96.05 98.2 93.15ZM105.2 79.9L85.5 97.4 82.5 93.1 102.2 75.65 105.2 79.9ZM89.1 67.9L89.1 75.6 93.6 69.7M85.9 54.45L77 66.1 68.1 59.95 77 48.3 85.9 54.45ZM79.5 89.75L68.1 73.55 73.3 68.95 84.7 85.15 79.5 89.75ZM73.55 104.8L77 103.45 74.6 101.8M77 103.45L77.25 99.95M81.5 98.9L81.5 106.6 83.9 108.25M73.8 108.95L81.5 106.6 77 103.45"/><animate attributeName="display" fill="freeze" repeatCount="1" dur="1.458s" keyTimes="0;.6;.657;1" values="none;inline;none;none"/></g><g display="none"><path id="Layer21_0_1_STROKES" stroke="#35373A" stroke-width="1" stroke-linejoin="round" stroke-linecap="round" fill="none" d="M114 45.5Q114 48.85 111.6 52.05 109.25 55.25 105.95 56.35 102.65 57.5 100.25 55.9 97.9 54.35 97.9 51 97.9 47.7 100.25 44.5 102.65 41.35 105.95 40.2 109.25 39.1 111.6 40.65 114 42.2 114 45.5ZM67.5 44.65L93.55 35.8 93.55 42.7 67.5 51.55 67.5 44.65ZM91.9 54L91.9 80 85.05 82.35 85.05 56.35 91.9 54ZM113.6 90.55Q113.6 93.35 111.6 96 109.65 98.65 106.85 99.6 104.05 100.55 102.05 99.2 100.1 97.95 100.1 95.15 100.1 92.35 102.05 89.65 104.05 87.05 106.85 86.1 109.65 85.15 111.6 86.45 113.6 87.75 113.6 90.55ZM99.25 66.4L113.65 61.55 113.65 76 99.25 80.85 99.25 66.4ZM73.8 60.2L73.8 64.1 80.05 68.2M67.5 72.5L73.8 64.1 73.8 71.4 76.75 73M73.8 75.3L73.8 71.4 70.75 75M70.95 94.9L90.1 88.4 90.1 100.1 70.95 106.6 70.95 94.9Z"/><animate attributeName="display" fill="freeze" repeatCount="1" dur="1.458s" keyTimes="0;.543;.6;1" values="none;inline;none;none"/></g><g display="none"><path id="Layer20_0_1_STROKES" stroke="#35373A" stroke-width="1" stroke-linejoin="round" stroke-linecap="round" fill="none" d="M114 45.5Q114 48.85 111.6 52.05 109.25 55.25 105.95 56.35 102.65 57.5 100.25 55.9 97.9 54.35 97.9 51 97.9 47.7 100.25 44.5 102.65 41.35 105.95 40.2 109.25 39.1 111.6 40.65 114 42.2 114 45.5ZM67.5 44.65L93.55 35.8 93.55 42.7 67.5 51.55 67.5 44.65ZM91.9 54L91.9 80 85.05 82.35 85.05 56.35 91.9 54ZM113.6 90.55Q113.6 93.35 111.6 96 109.65 98.65 106.85 99.6 104.05 100.55 102.05 99.2 100.1 97.95 100.1 95.15 100.1 92.35 102.05 89.65 104.05 87.05 106.85 86.1 109.65 85.15 111.6 86.45 113.6 87.75 113.6 90.55ZM99.25 66.4L113.65 61.55 113.65 76 99.25 80.85 99.25 66.4ZM73.8 75.3L73.8 71.4 70.75 75M76.75 73L73.8 71.4 73.8 64.1 67.5 72.5M73.8 60.2L73.8 64.1 80.05 68.2M70.95 94.9L90.1 88.4 90.1 100.1 70.95 106.6 70.95 94.9Z"/><animate attributeName="display" fill="freeze" repeatCount="1" dur="1.458s" keyTimes="0;.486;.543;1" values="none;inline;none;none"/></g><g display="none"><path id="Layer19_0_1_STROKES" stroke="#35373A" stroke-width="1" stroke-linejoin="round" stroke-linecap="round" fill="none" d="M97.15 33.9L99.55 34.8 107.25 30.05M99.55 42.6L99.55 34.8 104.05 36.55 107.5 34.15M106.45 37.45L104.05 36.55 103.8 40.15M75.85 68.8L95.55 45.25 98.55 48.6 78.85 72.15 75.85 68.8ZM101.55 51.15L112.95 63.8 107.75 70 96.35 57.35 101.55 51.15ZM84.2 72.95L91.95 68.15 94.35 64.25M98.55 95.75Q98.55 98.2 96.8 100.95 95.1 103.75 92.65 105.3 90.2 106.8 88.45 106.15 86.75 105.5 86.75 103.05 86.75 100.6 88.45 97.8 90.2 95 92.65 93.5 95.1 91.95 96.8 92.6 98.55 93.3 98.55 95.75ZM87.7 78.75L87.45 75.5 85 79.35M87.45 75.5L84 77.35M95.15 88.4L104.05 73.95 112.95 77.35 104.05 91.8 95.15 88.4ZM91.95 75.85L91.95 68.15 87.45 75.5M74.9 85.5L86.75 90 79.5 101.75 67.65 97.25 74.9 85.5ZM82.85 53.4Q82.85 56.3 80.75 59.65 78.7 63.05 75.8 64.8 72.9 66.6 70.8 65.8 68.75 65.05 68.75 62.15 68.75 59.25 70.8 55.85 72.9 52.5 75.8 50.7 78.7 48.95 80.75 49.7 82.85 50.5 82.85 53.4Z"/><animate attributeName="display" fill="freeze" repeatCount="1" dur="1.458s" keyTimes="0;.429;.486;1" values="none;inline;none;none"/></g><g display="none"><path id="Layer18_0_1_STROKES" stroke="#35373A" stroke-width="1" stroke-linejoin="round" stroke-linecap="round" fill="none" d="M82.55 41.05L92 47.1 84.6 57.1 75.2 51.1 82.55 41.05ZM108.95 43.85Q108.95 46 107.4 47.9 105.9 49.9 103.75 50.6 101.6 51.2 100.1 50.2 98.6 49.15 98.6 47 98.6 44.85 100.1 42.9 101.6 40.9 103.75 40.25 105.9 39.6 107.4 40.6 108.95 41.7 108.95 43.85ZM98.6 62.95Q98.6 65.65 96.7 68.1 94.8 70.6 92.1 71.45 89.4 72.25 87.5 70.95 85.6 69.65 85.6 66.95 85.6 64.25 87.5 61.75 89.4 59.25 92.1 58.45 94.8 57.6 96.7 58.9 98.6 60.25 98.6 62.95ZM73.95 81.55L91.75 75.5 91.85 83.25 74 89.35 73.95 81.55ZM99.45 95.35L104.9 93.4 106.95 90.8M106.15 66.7L112.95 80.25 105.45 85.75 98.6 72.15 106.15 66.7ZM98.75 99L101.1 98.4 104.9 93.4 103.85 99.95M97.25 93.9L108.5 88.25 108.5 99.2 97.25 104.85 97.25 93.9ZM73.4 58.55L73.4 61.95 76.05 58.75M70.8 60.6L73.4 61.95 73.4 68.35 78.9 60.85M73.4 71.75L73.4 68.35 67.95 64.85M86.35 100.5Q86.35 103.2 84.45 105.65 82.55 108.15 79.85 109 77.15 109.8 75.25 108.5 73.35 107.2 73.35 104.5 73.35 101.8 75.25 99.3 77.15 96.8 79.85 96 82.55 95.15 84.45 96.45 86.35 97.8 86.35 100.5ZM99.1 101.05L101.1 98.4 100.85 101.25"/><animate attributeName="display" fill="freeze" repeatCount="1" dur="1.458s" keyTimes="0;.371;.429;1" values="none;inline;none;none"/></g><g display="none"><path id="Layer17_0_1_STROKES" stroke="#35373A" stroke-width="1" stroke-linejoin="round" stroke-linecap="round" fill="none" d="M108.95 43.85Q108.95 46 107.4 47.9 105.9 49.9 103.75 50.6 101.6 51.2 100.1 50.2 98.6 49.15 98.6 47 98.6 44.85 100.1 42.9 101.6 40.9 103.75 40.25 105.9 39.6 107.4 40.6 108.95 41.7 108.95 43.85ZM110.35 60.75L107.8 63.15 106.5 71.75M100.1 67.05L103.05 67.75 107.8 63.15 100.95 62.35M102.7 71.6L103.05 67.75 100.55 70.15M95.85 62.5Q95.85 65.2 93.95 67.65 92.05 70.15 89.35 71 86.65 71.8 84.75 70.5 82.85 69.2 82.85 66.5 82.85 63.8 84.75 61.3 86.65 58.8 89.35 58 92.05 57.15 93.95 58.45 95.85 59.8 95.85 62.5ZM112 92.9Q112 95.6 110.1 98.05 108.2 100.55 105.5 101.4 102.8 102.2 100.9 100.9 99 99.6 99 96.9 99 94.2 100.9 91.7 102.8 89.2 105.5 88.4 108.2 87.55 110.1 88.85 112 90.2 112 92.9ZM88.25 79.2L99.5 73.55 99.5 84.5 88.25 90.15 88.25 79.2ZM78.15 41.4L89.1 39.05 90.95 51.35 80.05 53.7 78.15 41.4ZM73.5 58.55L73.5 61.95 78.95 65.45M68 69.45L73.5 61.95 73.5 68.35 76.1 69.7M73.5 71.75L73.5 68.35 70.85 71.55M78.2 91.05L85 104.6 77.5 110.1 70.65 96.5 78.2 91.05Z"/><animate attributeName="display" fill="freeze" repeatCount="1" dur="1.458s" keyTimes="0;.314;.371;1" values="none;inline;none;none"/></g><g display="none"><path id="Layer16_0_1_STROKES" stroke="#35373A" stroke-width="1" stroke-linejoin="round" stroke-linecap="round" fill="none" d="M104.5 38.05Q104.5 40.75 102.6 43.2 100.7 45.7 98 46.55 95.3 47.35 93.4 46.05 91.5 44.75 91.5 42.05 91.5 39.35 93.4 36.85 95.3 34.35 98 33.55 100.7 32.7 102.6 34 104.5 35.35 104.5 38.05ZM93.55 49.2L93.55 52.6 99 56.45M88.05 59.7L93.55 52.6 93.55 59 96.15 60.45M93.55 62.4L93.55 59 90.9 62M86 62.45Q86 65.15 84.1 67.6 82.2 70.1 79.5 70.95 76.8 71.75 74.9 70.45 73 69.15 73 66.45 73 63.75 74.9 61.25 76.8 58.75 79.5 57.95 82.2 57.1 84.1 58.4 86 59.75 86 62.45ZM94.15 93.2Q94.15 95.9 92.25 98.35 90.35 100.85 87.65 101.7 84.95 102.5 83.05 101.2 81.15 99.9 81.15 97.2 81.15 94.5 83.05 92 84.95 89.5 87.65 88.7 90.35 87.85 92.25 89.15 94.15 90.5 94.15 93.2ZM99 62.1L110.25 58.25 110.25 79.1 99 82.95 99 62.1ZM67.25 47.35L76.1 39.85 81.15 51.3 72.3 58.8 67.25 47.35ZM75.6 77.45L82.35 83.8 72.6 95.25 65.85 88.9 75.6 77.45Z"/><animate attributeName="display" fill="freeze" repeatCount="1" dur="1.458s" keyTimes="0;.257;.314;1" values="none;inline;none;none"/></g><g display="none"><path id="Layer15_0_1_STROKES" stroke="#35373A" stroke-width="1" stroke-linejoin="round" stroke-linecap="round" fill="none" d="M20.6 42.65Q20.6 45.35 22.5 47.8 24.4 50.3 27.1 51.15 29.8 51.95 31.7 50.65 33.6 49.35 33.6 46.65 33.6 43.95 31.7 41.45 29.8 38.95 27.1 38.15 24.4 37.3 22.5 38.6 20.6 39.95 20.6 42.65ZM28.95 65.05L31.55 63.6 31.55 57.2 26.1 61.05M37.05 64.3L31.55 57.2 31.55 53.8M34.2 66.6L31.55 63.6 31.55 67M30.95 97.8Q30.95 100.5 32.85 102.95 34.75 105.45 37.45 106.3 40.15 107.1 42.05 105.8 43.95 104.5 43.95 101.8 43.95 99.1 42.05 96.6 40.15 94.1 37.45 93.3 34.75 92.45 32.85 93.75 30.95 95.1 30.95 97.8ZM26.1 66.7L14.85 62.85 14.85 83.7 26.1 87.55 26.1 66.7ZM57.85 51.95L49 44.45 43.95 55.9 52.8 63.4 57.85 51.95ZM39.1 67.05Q39.1 69.75 41 72.2 42.9 74.7 45.6 75.55 48.3 76.35 50.2 75.05 52.1 73.75 52.1 71.05 52.1 68.35 50.2 65.85 48.3 63.35 45.6 62.55 42.9 61.7 41 63 39.1 64.35 39.1 67.05ZM49.5 82.05L42.75 88.4 52.5 99.85 59.25 93.5 49.5 82.05Z"/><animate attributeName="display" fill="freeze" repeatCount="1" dur="1.458s" keyTimes="0;.629;.686;1" values="none;inline;none;none"/></g><g display="none"><path id="Layer14_0_1_STROKES" stroke="#35373A" stroke-width="1" stroke-linejoin="round" stroke-linecap="round" fill="none" d="M56.45 52.1Q56.45 54.25 54.9 55.35 53.4 56.55 51.25 56.15 49.1 55.6 47.6 53.85 46.1 52 46.1 49.85 46.1 47.7 47.6 46.55 49.1 45.3 51.25 45.8 53.4 46.25 54.9 48.05 56.45 49.95 56.45 52.1ZM25.65 33.55L36.6 36.95 38.45 50.2 27.55 46.85 25.65 33.55ZM21 48.25L21 51.65 26.45 58M18.35 59.9L21 58.05 21 51.65 15.5 56.3M43.35 63.9Q43.35 66.6 41.45 68.05 39.55 69.55 36.85 69 34.15 68.4 32.25 66.1 30.35 63.8 30.35 61.1 30.35 58.4 32.25 56.9 34.15 55.4 36.85 56 39.55 56.55 41.45 58.85 43.35 61.2 43.35 63.9ZM21 61.45L21 58.05 23.6 60.8M35.75 76.65L47 76.85 47 87.8 35.75 87.6 35.75 76.65ZM25.7 83.25L32.5 100.35 25 101.9 18.15 84.75 25.7 83.25ZM48.05 74L50.55 72.9 47.6 70.7M48.45 66.4L55.3 70.8 57.85 69.75M50.55 72.9L55.3 70.8 54 78.7M59.5 102.75Q59.5 105.45 57.6 106.9 55.7 108.4 53 107.85 50.3 107.25 48.4 104.95 46.5 102.65 46.5 99.95 46.5 97.25 48.4 95.75 50.3 94.25 53 94.85 55.7 95.4 57.6 97.7 59.5 100.05 59.5 102.75ZM50.2 76.6L50.55 72.9"/><animate attributeName="display" fill="freeze" repeatCount="1" dur="1.458s" keyTimes="0;.571;.629;1" values="none;inline;none;none"/></g><g display="none"><path id="Layer13_0_1_STROKES" stroke="#35373A" stroke-width="1" stroke-linejoin="round" stroke-linecap="round" fill="none" d="M21.4 44.9L21.4 48.3 24.05 47.15M18.8 44.9L21.4 48.3 21.4 54.7 26.9 51.45M30.55 34.5L40 47.9 32.6 52.15 23.2 38.85 30.55 34.5ZM21.4 54.7L21.4 58.1M46.6 68.9Q46.6 71.6 44.7 72.55 42.8 73.6 40.1 72.35 37.4 71.05 35.5 68.25 33.6 65.5 33.6 62.8 33.6 60.1 35.5 59.05 37.4 58.05 40.1 59.35 42.8 60.6 44.7 63.35 46.6 66.2 46.6 68.9ZM34.35 96.9Q34.35 99.6 32.45 100.6 30.55 101.6 27.85 100.35 25.15 99.05 23.25 96.3 21.35 93.5 21.35 90.8 21.35 88.1 23.25 87.1 25.15 86.05 27.85 87.35 30.55 88.6 32.45 91.4 34.35 94.2 34.35 96.9ZM21.95 68.3L39.75 76.1 39.85 83.95 22 76.15 21.95 68.3ZM56.95 57.85Q56.95 60 55.4 60.7 53.9 61.5 51.75 60.55 49.6 59.45 48.1 57.3 46.6 55.1 46.6 52.95 46.6 50.8 48.1 50 49.6 49.15 51.75 50.2 53.9 51.2 55.4 53.4 56.95 55.7 56.95 57.85ZM54.15 78.5L60.95 97.35 53.45 97 46.6 78.1 54.15 78.5ZM21.4 54.7L15.95 46.95M47.45 102.85L52.9 105.15 54.95 104.15M52.9 105.15L51.85 110.85M47.1 108.3L49.1 107.2 46.75 105.95M48.85 109.85L49.1 107.2 52.9 105.15M45.25 99.3L56.5 102.4 56.5 113.35 45.25 110.25 45.25 99.3Z"/><animate attributeName="display" fill="freeze" repeatCount="1" dur="1.458s" keyTimes="0;.514;.571;1" values="none;inline;none;none"/></g><g display="none"><path id="Layer12_0_1_STROKES" stroke="#35373A" stroke-width="1" stroke-linejoin="round" stroke-linecap="round" fill="none" d="M44.9 44.8L47.3 46.45 55 44.1M31.4 38.3Q31.4 41.2 29.3 43.9 27.25 46.65 24.35 47.55 21.45 48.45 19.35 47 17.3 45.6 17.3 42.7 17.3 39.8 19.35 37.05 21.45 34.35 24.35 33.45 27.25 32.55 29.3 33.95 31.4 35.4 31.4 38.3ZM22.05 66.45L24.5 63.4 21.05 64.15M24.75 66.7L24.5 63.4 29 57.4 21.25 59.8M31.4 54.25L29 57.4 29 65.1M22.45 87.55L34.3 95.75 27.05 105.25 15.2 97.05 22.45 87.55ZM21.45 69.05L43.4 83.55 40.05 87.55 18.05 73 21.45 69.05ZM54.2 51.25L51.8 49.6 51.55 53.15M54.6 61.55Q54.6 64 52.85 66.25 51.15 68.5 48.7 69.25 46.25 70.05 44.5 68.8 42.8 67.65 42.8 65.2 42.8 62.75 44.5 60.45 46.25 58.25 48.7 57.45 51.15 56.7 52.85 57.9 54.6 59.1 54.6 61.55ZM50.1 75.5L61.5 91.65 56.3 96.25 44.9 80.1 50.1 75.5ZM47.3 54.25L47.3 46.45 51.8 49.6 55.25 48.25M40.95 107.65L49.85 96 58.75 102.15 49.85 113.8 40.95 107.65Z"/><animate attributeName="display" fill="freeze" repeatCount="1" dur="1.458s" keyTimes="0;.457;.514;1" values="none;inline;none;none"/></g><g display="none"><path id="Layer11_0_1_STROKES" stroke="#35373A" stroke-width="1" stroke-linejoin="round" stroke-linecap="round" fill="none" d="M15.15 35.85Q15.15 33.05 17.15 31.75 19.1 30.45 21.9 31.4 24.7 32.35 26.7 35 28.65 37.6 28.65 40.4 28.65 43.2 26.7 44.55 24.7 45.85 21.9 44.9 19.1 43.95 17.15 41.3 15.15 38.65 15.15 35.85ZM29.5 69.7L15.1 64.85 15.1 50.4 29.5 55.25 29.5 69.7ZM14.75 80.65Q14.75 77.3 17.15 75.75 19.5 74.15 22.8 75.3 26.1 76.35 28.5 79.6 30.85 82.75 30.85 86.1 30.85 89.4 28.5 91 26.1 92.5 22.8 91.45 19.5 90.3 17.15 87.15 14.75 83.95 14.75 80.65ZM36.85 87.15L36.85 61.15 43.7 63.45 43.7 89.45 36.85 87.15ZM54.95 78.1L54.95 82 58 80.45M52 78.4L54.95 82 54.95 89.3 61.25 85.15M54.95 93.2L54.95 89.3 48.7 80.95M57.8 60.4L38.65 53.9 38.65 42.2 57.8 48.7 57.8 60.4ZM61.25 113L35.2 104.25 35.2 97.35 61.25 106.1 61.25 113Z"/><animate attributeName="display" fill="freeze" repeatCount="1" dur="1.458s" keyTimes="0;.4;.457;1" values="none;inline;none;none"/></g><g display="none"><path id="Layer10_0_1_STROKES" stroke="#35373A" stroke-width="1" stroke-linejoin="round" stroke-linecap="round" fill="none" d="M15.5 45.5Q15.5 48.85 17.9 52.05 20.25 55.25 23.55 56.35 26.85 57.5 29.25 55.9 31.6 54.35 31.6 51 31.6 47.7 29.25 44.5 26.85 41.35 23.55 40.2 20.25 39.1 17.9 40.65 15.5 42.2 15.5 45.5ZM62 44.65L35.95 35.8 35.95 42.7 62 51.55 62 44.65ZM15.9 90.55Q15.9 93.35 17.9 96 19.85 98.65 22.65 99.6 25.45 100.55 27.45 99.2 29.4 97.95 29.4 95.15 29.4 92.35 27.45 89.65 25.45 87.05 22.65 86.1 19.85 85.15 17.9 86.45 15.9 87.75 15.9 90.55ZM37.6 54L37.6 80 44.45 82.35 44.45 56.35 37.6 54ZM30.25 66.4L15.85 61.55 15.85 76 30.25 80.85 30.25 66.4ZM52.75 73L55.7 71.4 55.7 64.1 49.45 68.2M55.7 60.2L55.7 64.1 62 72.5M58.75 75L55.7 71.4 55.7 75.3M58.55 94.9L39.4 88.4 39.4 100.1 58.55 106.6 58.55 94.9Z"/><animate attributeName="display" fill="freeze" repeatCount="1" dur="1.458s" keyTimes="0;.343;.4;1" values="none;inline;none;none"/></g><g display="none"><path id="Layer9_0_1_STROKES" stroke="#35373A" stroke-width="1" stroke-linejoin="round" stroke-linecap="round" fill="none" d="M45.25 46Q45.25 43.55 43.5 41.3 41.8 39.05 39.35 38.3 36.9 37.5 35.15 38.75 33.45 39.9 33.45 42.35 33.45 44.8 35.15 47.1 36.9 49.3 39.35 50.1 41.8 50.85 43.5 49.65 45.25 48.45 45.25 46ZM21.6 63.65L33.45 55.45 26.2 45.95 14.35 54.15 21.6 63.65ZM34.4 66.3L34.15 69.7 38.65 75.6 38.65 67.9M30.7 68.85L34.15 69.7 31.7 66.5M29.55 93.15Q29.55 90.25 27.45 87.55 25.4 84.85 22.5 83.95 19.6 83.05 17.5 84.5 15.45 85.9 15.45 88.8 15.45 91.7 17.5 94.45 19.6 97.15 22.5 98.05 25.4 98.95 27.45 97.5 29.55 96.05 29.55 93.15ZM22.55 79.9L42.25 97.4 45.25 93.1 25.55 75.65 22.55 79.9ZM30.9 73.15L38.65 75.6 41.05 78.7M41.85 54.45L50.75 66.1 59.65 59.95 50.75 48.3 41.85 54.45ZM48.25 89.75L59.65 73.55 54.45 68.95 43.05 85.15 48.25 89.75ZM54.2 104.8L50.75 103.45 46.25 106.6 53.95 108.95M50.5 99.95L50.75 103.45 53.15 101.8M43.85 108.25L46.25 106.6 46.25 98.9"/><animate attributeName="display" fill="freeze" repeatCount="1" dur="1.458s" keyTimes="0;.286;.343;1" values="none;inline;none;none"/></g><g display="none"><g transform="matrix(.034 -.345 0 .826 0 0)" id="Layer2_0_FILL"><path fill="#FFF" stroke="none" d="M66.7 13.3L64.25 37.8 64.25 122.05 66.7 97.55Q66.75 96.85 66.8 95.1 66.85 93.4 66.85 91.65L66.85 15.65Q66.85 13.95 66.8 13.25 66.75 12.6 66.7 13.3Z"/><path id="Layer2_0_1_STROKES" stroke="#35373A" stroke-width="1" stroke-linejoin="round" stroke-linecap="round" fill="none" d="M64.25 37.8L66.7 13.3Q66.75 12.6 66.8 13.25 66.85 13.95 66.85 15.65L66.85 91.65Q66.85 93.4 66.8 95.1 66.75 96.85 66.7 97.55L64.25 122.05 64.25 37.8Z"/></g><animate attributeName="display" fill="freeze" repeatCount="1" dur="1.458s" keyTimes="0;.314;.343;.429;.457;.543;.571;.657;.686;1" values="none;inline;none;inline;none;inline;none;inline;none;none"/></g><g display="none"><g transform="matrix(-.034 -.345 0 .826 0 0)" id="Layer1_0_FILL"><path fill="#FFF" stroke="none" d="M63.6 37.8L61.15 13.3Q61.1 12.6 61.05 13.25 61 13.95 61 15.65L61 91.65Q61 93.4 61.05 95.1 61.1 96.85 61.15 97.55L63.6 122.05 63.6 37.8Z"/><path id="Layer1_0_1_STROKES" stroke="#35373A" stroke-width="1" stroke-linejoin="round" stroke-linecap="round" fill="none" d="M63.6 37.8L61.15 13.3Q61.1 12.6 61.05 13.25 61 13.95 61 15.65L61 91.65Q61 93.4 61.05 95.1 61.1 96.85 61.15 97.55L63.6 122.05 63.6 37.8Z"/></g><animate attributeName="display" fill="freeze" repeatCount="1" dur="1.458s" keyTimes="0;.257;.286;.371;.4;.486;.514;.6;.629;1" values="none;inline;none;inline;none;inline;none;inline;none;none"/></g></g></svg>