<?xml version="1.0" encoding="utf-8"?><svg id="icon-eres-animated" image-rendering="auto" baseProfile="basic" version="1.1" style="background-color:#FFF" x="0px" y="0px" width="125" height="125" xmlns="http://www.w3.org/2000/svg" enable-background="new 0 0 125 125" xmlns:xlink="http://www.w3.org/1999/xlink"><defs><g id="Tween 4_0.0" overflow="visible"><g id="cards" transform="translate(47.5 0)"><path fill="#35373A" stroke="none" d="M-93.55 -28.55Q-95 -27.05 -95 -25L-95 25Q-95 27.1 -93.55 28.55 -92.1 30 -90 30L-5 30Q-2.95 30 -1.45 28.55 0 27.1 0 25L0 -25Q0 -27.05 -1.45 -28.55 -2.95 -30 -5 -30L-90 -30Q-92.1 -30 -93.55 -28.55Z"/><path fill="#FFCB36" stroke="none" d="M-68 -6L-79 -6Q-79.85 -6 -80.45 -5.4 -81 -4.85 -81 -4L-81 4Q-81 4.85 -80.45 5.45 -79.85 6 -79 6L-68 6Q-67.15 6 -66.6 5.45 -66 4.85 -66 4L-66 -4Q-66 -4.8 -66.6 -5.4 -67.15 -6 -68 -6Z"/><path id="Layer3_0_1_STROKES" stroke="#FFF" stroke-width="2" stroke-linejoin="miter" stroke-linecap="butt" stroke-miterlimit="4" fill="none" d="M-21 11Q-15.85 11 -13.75 9.5 -11 7.55 -11 2 -11 -5.85 -16.6 -11.4 -22.15 -17 -30 -17 -37.85 -17 -43.45 -11.4 -49 -5.85 -49 2 -49 9.9 -43.45 15.45 -37.85 21 -30 21 -22.55 21 -17.1 15.95"/><path id="Layer4_0_1_STROKES" stroke="#FFF" stroke-width="2" stroke-linejoin="miter" stroke-linecap="butt" stroke-miterlimit="4" fill="none" d="M-39 .75L-30 -8.25 -21 .75"/><path id="Layer5_0_1_STROKES" stroke="#FFF" stroke-width="2" stroke-linejoin="miter" stroke-linecap="butt" stroke-miterlimit="4" fill="none" d="M-27.05 11L-36 11 -36 -2M-20.75 11L-24.5 11"/><path id="Layer6_0_1_STROKES" stroke="#FFF" stroke-width="2" stroke-linejoin="miter" stroke-linecap="butt" stroke-miterlimit="4" fill="none" d="M-24 -2L-24 12"/></g></g><g id="Tween-4f0r1" overflow="visible"><use xlink:href="#Tween-8"/><use xlink:href="#Tween-7"/><use xlink:href="#Tween-6"/><use xlink:href="#Tween-5"/><use xlink:href="#Tween 4_0.0"/></g><g id="Tween-5" overflow="visible"><path fill="#FFCB36" stroke="none" d="M46.05 -28.55Q44.55 -30 42.5 -30L-42.5 -30Q-44.6 -30 -46.05 -28.55 -47.5 -27.05 -47.5 -25L-47.5 25Q-47.5 27.1 -46.05 28.55 -44.6 30 -42.5 30L42.5 30Q44.55 30 46.05 28.55 47.5 27.1 47.5 25L47.5 -25Q47.5 -27.05 46.05 -28.55Z"/></g><g id="Tween-6" overflow="visible"><path fill="#35373A" stroke="none" d="M46.05 -28.55Q44.55 -30 42.5 -30L-42.5 -30Q-44.6 -30 -46.05 -28.55 -47.5 -27.05 -47.5 -25L-47.5 25Q-47.5 27.1 -46.05 28.55 -44.6 30 -42.5 30L42.5 30Q44.55 30 46.05 28.55 47.5 27.1 47.5 25L47.5 -25Q47.5 -27.05 46.05 -28.55Z"/><path id="Layer8_0_1_STROKES" stroke="#35373A" stroke-width="1" stroke-linejoin="round" stroke-linecap="round" fill="none" d="M-42.5 -30L42.5 -30Q44.55 -30 46.05 -28.55 47.5 -27.05 47.5 -25L47.5 25Q47.5 27.1 46.05 28.55 44.55 30 42.5 30L-42.5 30Q-44.6 30 -46.05 28.55 -47.5 27.1 -47.5 25L-47.5 -25Q-47.5 -27.05 -46.05 -28.55 -44.6 -30 -42.5 -30Z"/></g><g id="Tween-7" overflow="visible"><path fill="#FFCB36" stroke="none" d="M46.05 -28.55Q44.55 -30 42.5 -30L-42.5 -30Q-44.6 -30 -46.05 -28.55 -47.5 -27.05 -47.5 -25L-47.5 25Q-47.5 27.1 -46.05 28.55 -44.6 30 -42.5 30L42.5 30Q44.55 30 46.05 28.55 47.5 27.1 47.5 25L47.5 -25Q47.5 -27.05 46.05 -28.55Z"/></g><g id="Tween-8" overflow="visible"><path fill="#35373A" stroke="none" d="M46.05 -28.55Q44.55 -30 42.5 -30L-42.5 -30Q-44.6 -30 -46.05 -28.55 -47.5 -27.05 -47.5 -25L-47.5 25Q-47.5 27.1 -46.05 28.55 -44.6 30 -42.5 30L42.5 30Q44.55 30 46.05 28.55 47.5 27.1 47.5 25L47.5 -25Q47.5 -27.05 46.05 -28.55Z"/></g></defs><g id="Scene-1r1" overflow="visible"><g display="none"><g id="Tween-4f23o23r1" transform="matrix(-.416 .615 -.615 -.416 79.5 79.65)"><animateTransform attributeName="transform" additive="replace" type="translate" dur="1.042s" keyTimes="0;.95999;.96;1" values="59.716,108.932;59.716,108.932;59.605,109.028;59.605,109.028" fill="freeze"/><animateTransform attributeName="transform" additive="sum" type="rotate" dur="1.042s" keyTimes="0;.95999;.96;1" values="124.097,0,0;124.097,0,0;124.372,0,0;124.372,0,0" fill="freeze"/><animateTransform attributeName="transform" additive="sum" type="scale" dur="1.042s" keyTimes="0;1" values=".742,.742;.742,.742" fill="freeze"/><animateTransform attributeName="transform" additive="sum" type="translate" dur="1.042s" keyTimes="0;.95999;.96;1" values="-47.55,.05;-47.55,.05;-47.55,-.05;-47.55,-.05" fill="freeze"/><use xlink:href="#Tween-8" transform="matrix(.63 -.775 .775 .63 23.65 29.8)"/><use xlink:href="#Tween-7" transform="matrix(.778 -.626 .626 .778 15.95 23.7)"/><use xlink:href="#Tween-6" transform="matrix(.885 -.462 .462 .885 10 17.15)"/><use xlink:href="#Tween-5" transform="matrix(.971 -.238 .238 .971 4.9 8.8)"/><use xlink:href="#Tween 4_0.0"/></g><animate attributeName="display" fill="freeze" repeatCount="1" dur="1.042s" keyTimes="0;.92;1" values="none;inline;inline"/></g><g display="none"><g id="Tween-4f22o22r1" transform="matrix(-.411 .62 -.62 -.411 79.5 79.25)"><use xlink:href="#Tween-8" transform="matrix(.686 -.726 .726 .686 20.9 28.2)"/><use xlink:href="#Tween-7" transform="matrix(.814 -.578 .578 .814 14 22.25)"/><use xlink:href="#Tween-6" transform="matrix(.905 -.423 .423 .905 8.8 15.85)"/><use xlink:href="#Tween-5" transform="matrix(.975 -.217 .217 .975 4.4 8.1)"/><use xlink:href="#Tween 4_0.0"/></g><animate attributeName="display" fill="freeze" repeatCount="1" dur="1.042s" keyTimes="0;.88;.92;1" values="none;inline;none;none"/></g><g display="none"><g id="Tween-4f21o21r1" transform="matrix(-.399 .631 -.631 -.399 79.35 78.35)"><use xlink:href="#Tween-8" transform="matrix(.737 -.673 .673 .737 18.3 26.45)"/><use xlink:href="#Tween-7" transform="matrix(.844 -.534 .534 .844 12.4 20.85)"/><use xlink:href="#Tween-6" transform="matrix(.921 -.388 .388 .921 7.75 14.6)"/><use xlink:href="#Tween-5" transform="matrix(.98 -.196 .196 .98 3.8 7.35)"/><use xlink:href="#Tween 4_0.0"/></g><animate attributeName="display" fill="freeze" repeatCount="1" dur="1.042s" keyTimes="0;.84;.88;1" values="none;inline;none;none"/></g><g display="none"><g id="Tween-4f20o20r1" transform="matrix(-.384 .644 -.644 -.384 79.25 77.1)"><use xlink:href="#Tween-8" transform="matrix(.781 -.622 .622 .781 16.05 24.7)"/><use xlink:href="#Tween-7" transform="matrix(.871 -.489 .489 .871 10.85 19.3)"/><use xlink:href="#Tween-6" transform="matrix(.934 -.355 .355 .934 6.9 13.4)"/><use xlink:href="#Tween-5" transform="matrix(.983 -.179 .179 .983 3.5 6.7)"/><use xlink:href="#Tween 4_0.0"/></g><animate attributeName="display" fill="freeze" repeatCount="1" dur="1.042s" keyTimes="0;.8;.84;1" values="none;inline;none;none"/></g><g display="none"><g id="Tween-4f19o19r1" transform="matrix(-.364 .66 -.66 -.364 79.05 75.65)"><use xlink:href="#Tween-8" transform="matrix(.822 -.567 .567 .822 13.8 22.7)"/><use xlink:href="#Tween-7" transform="matrix(.895 -.443 .443 .895 9.4 17.8)"/><use xlink:href="#Tween-6" transform="matrix(.946 -.322 .322 .946 6 12.25)"/><use xlink:href="#Tween-5" transform="matrix(.986 -.161 .161 .986 3.05 6.1)"/><use xlink:href="#Tween 4_0.0"/></g><animate attributeName="display" fill="freeze" repeatCount="1" dur="1.042s" keyTimes="0;.76;.8;1" values="none;inline;none;none"/></g><g display="none"><g id="Tween-4f18o18r1" transform="matrix(-.339 .679 -.679 -.339 78.9 73.9)"><use xlink:href="#Tween-8" transform="matrix(.855 -.516 .516 .855 11.9 20.85)"/><use xlink:href="#Tween-7" transform="matrix(.915 -.4 .4 .915 8.1 16.25)"/><use xlink:href="#Tween-6" transform="matrix(.956 -.289 .289 .956 5.2 11.05)"/><use xlink:href="#Tween-5" transform="matrix(.989 -.144 .144 .989 2.7 5.5)"/><use xlink:href="#Tween 4_0.0"/></g><animate attributeName="display" fill="freeze" repeatCount="1" dur="1.042s" keyTimes="0;.72;.76;1" values="none;inline;none;none"/></g><g display="none"><g id="Tween-4f17o17r1" transform="matrix(-.308 .699 -.699 -.308 78.6 71.85)"><use xlink:href="#Tween-8" transform="matrix(.883 -.466 .466 .883 10.2 18.95)"/><use xlink:href="#Tween-7" transform="matrix(.932 -.359 .359 .932 7 14.75)"/><use xlink:href="#Tween-6" transform="matrix(.965 -.259 .259 .965 4.5 10)"/><use xlink:href="#Tween-5" transform="matrix(.991 -.131 .131 .991 2.4 4.95)"/><use xlink:href="#Tween 4_0.0"/></g><animate attributeName="display" fill="freeze" repeatCount="1" dur="1.042s" keyTimes="0;.68;.72;1" values="none;inline;none;none"/></g><g display="none"><g id="Tween-4f16o16r1" transform="matrix(-.271 .722 -.722 -.271 78.05 69.6)"><use xlink:href="#Tween-8" transform="matrix(.908 -.415 .415 .908 8.65 17.05)"/><use xlink:href="#Tween-7" transform="matrix(.946 -.321 .321 .946 6 13.35)"/><use xlink:href="#Tween-6" transform="matrix(.973 -.23 .23 .973 3.85 8.9)"/><use xlink:href="#Tween-5" transform="matrix(.993 -.114 .114 .993 2.05 4.35)"/><use xlink:href="#Tween 4_0.0"/></g><animate attributeName="display" fill="freeze" repeatCount="1" dur="1.042s" keyTimes="0;.64;.68;1" values="none;inline;none;none"/></g><g display="none"><g id="Tween-4f15o15r1" transform="matrix(-.225 .746 -.746 -.225 77.4 67.15)"><use xlink:href="#Tween-8" transform="matrix(.929 -.367 .367 .929 7.3 15.2)"/><use xlink:href="#Tween-7" transform="matrix(.959 -.281 .281 .959 5 11.75)"/><use xlink:href="#Tween-6" transform="matrix(.979 -.2 .2 .979 3.25 7.8)"/><use xlink:href="#Tween-5" transform="matrix(.995 -.101 .101 .995 1.75 3.9)"/><use xlink:href="#Tween 4_0.0"/></g><animate attributeName="display" fill="freeze" repeatCount="1" dur="1.042s" keyTimes="0;.6;.64;1" values="none;inline;none;none"/></g><g display="none"><g id="Tween-4f14o14r1" transform="matrix(-.174 .768 -.768 -.174 76.7 64.5)"><use xlink:href="#Tween-8" transform="matrix(.946 -.322 .322 .946 6.05 13.35)"/><use xlink:href="#Tween-7" transform="matrix(.968 -.247 .247 .968 4.25 10.45)"/><use xlink:href="#Tween-6" transform="matrix(.984 -.175 .175 .984 2.75 6.85)"/><use xlink:href="#Tween-5" transform="matrix(.996 -.088 .088 .996 1.55 3.35)"/><use xlink:href="#Tween 4_0.0"/></g><animate attributeName="display" fill="freeze" repeatCount="1" dur="1.042s" keyTimes="0;.56;.6;1" values="none;inline;none;none"/></g><g display="none"><g id="Tween-4f13o13r1" transform="matrix(-.112 .789 -.789 -.112 75.65 61.9)"><use xlink:href="#Tween-8" transform="matrix(.959 -.28 .28 .959 5.05 11.75)"/><use xlink:href="#Tween-7" transform="matrix(.976 -.213 .213 .976 3.5 9.05)"/><use xlink:href="#Tween-6" transform="matrix(.988 -.152 .152 .988 2.3 5.95)"/><use xlink:href="#Tween-5" transform="matrix(.997 -.075 .075 .997 1.3 2.9)"/><use xlink:href="#Tween 4_0.0"/></g><animate attributeName="display" fill="freeze" repeatCount="1" dur="1.042s" keyTimes="0;.52;.56;1" values="none;inline;none;none"/></g><g display="none"><g id="Tween-4f12o12r1" transform="matrix(-.046 .806 -.806 -.046 74.45 59.2)"><use xlink:href="#Tween-8" transform="matrix(.97 -.238 .238 .97 4.1 10.05)"/><use xlink:href="#Tween-7" transform="matrix(.983 -.182 .182 .983 2.95 7.85)"/><use xlink:href="#Tween-6" transform="matrix(.991 -.127 .127 .991 1.9 5)"/><use xlink:href="#Tween-5" transform="matrix(.998 -.062 .062 .998 1.1 2.45)"/><use xlink:href="#Tween 4_0.0"/></g><animate attributeName="display" fill="freeze" repeatCount="1" dur="1.042s" keyTimes="0;.48;.52;1" values="none;inline;none;none"/></g><g display="none"><g id="Tween-4f11o11r1" transform="matrix(.029 .818 -.818 .029 73.15 56.6)"><use xlink:href="#Tween-8" transform="matrix(.979 -.2 .2 .979 3.3 8.5)"/><use xlink:href="#Tween-7" transform="matrix(.988 -.153 .153 .988 2.3 6.6)"/><use xlink:href="#Tween-6" transform="matrix(.994 -.109 .109 .994 1.6 4.25)"/><use xlink:href="#Tween-5" transform="matrix(.998 -.053 .053 .998 .85 2.05)"/><use xlink:href="#Tween 4_0.0"/></g><animate attributeName="display" fill="freeze" repeatCount="1" dur="1.042s" keyTimes="0;.44;.48;1" values="none;inline;none;none"/></g><g display="none"><g id="Tween-4f10o10r1" transform="matrix(.113 .823 -.823 .113 71.55 54.3)"><use xlink:href="#Tween-8" transform="matrix(.986 -.166 .166 .986 2.6 7)"/><use xlink:href="#Tween-7" transform="matrix(.992 -.127 .127 .992 1.9 5.5)"/><use xlink:href="#Tween-6" transform="matrix(.996 -.088 .088 .996 1.25 3.5)"/><use xlink:href="#Tween-5" transform="matrix(1 -.044 .044 1 .7 1.75)"/><use xlink:href="#Tween 4_0.0"/></g><animate attributeName="display" fill="freeze" repeatCount="1" dur="1.042s" keyTimes="0;.4;.44;1" values="none;inline;none;none"/></g><g display="none"><g id="Tween-4f9o9r1" transform="matrix(.205 .818 -.818 .205 69.7 52.2)"><use xlink:href="#Tween-8" transform="matrix(.99 -.135 .135 .99 2.05 5.8)"/><use xlink:href="#Tween-7" transform="matrix(.995 -.101 .101 .995 1.45 4.4)"/><use xlink:href="#Tween-6" transform="matrix(.997 -.071 .071 .997 1 2.8)"/><use xlink:href="#Tween-5" transform="matrix(1 -.035 .035 1 .6 1.4)"/><use xlink:href="#Tween 4_0.0"/></g><animate attributeName="display" fill="freeze" repeatCount="1" dur="1.042s" keyTimes="0;.36;.4;1" values="none;inline;none;none"/></g><g display="none"><g id="Tween-4f8o8r1" transform="matrix(.304 .801 -.801 .304 67.7 50.6)"><use xlink:href="#Tween-8" transform="matrix(.994 -.105 .105 .994 1.5 4.55)"/><use xlink:href="#Tween-7" transform="matrix(.997 -.079 .079 .997 1.1 3.55)"/><use xlink:href="#Tween-6" transform="matrix(.998 -.057 .057 .998 .75 2.3)"/><use xlink:href="#Tween-5" transform="matrix(1 -.027 .027 1 .45 1.05)"/><use xlink:href="#Tween 4_0.0"/></g><animate attributeName="display" fill="freeze" repeatCount="1" dur="1.042s" keyTimes="0;.32;.36;1" values="none;inline;none;none"/></g><g display="none"><g id="Tween-4f7o7r1" transform="matrix(.41 .769 -.769 .41 65.65 49.4)"><use xlink:href="#Tween-8" transform="matrix(.997 -.079 .079 .997 1.15 3.45)"/><use xlink:href="#Tween-7" transform="matrix(.998 -.061 .061 .998 .85 2.7)"/><use xlink:href="#Tween-6" transform="matrix(1 -.044 .044 1 .6 1.75)"/><use xlink:href="#Tween-5" transform="matrix(1 -.022 .022 1 .35 .85)"/><use xlink:href="#Tween 4_0.0"/></g><animate attributeName="display" fill="freeze" repeatCount="1" dur="1.042s" keyTimes="0;.28;.32;1" values="none;inline;none;none"/></g><g display="none"><g id="Tween-4f6o6r1" transform="matrix(.516 .721 -.721 .516 63.75 48.95)"><use xlink:href="#Tween-8" transform="matrix(.998 -.058 .058 .998 .75 2.55)"/><use xlink:href="#Tween-7" transform="matrix(1 -.044 .044 1 .55 1.95)"/><use xlink:href="#Tween-6" transform="matrix(1 -.031 .031 1 .4 1.25)"/><use xlink:href="#Tween-5" transform="matrix(1 -.014 .014 1 .2 .55)"/><use xlink:href="#Tween 4_0.0"/></g><animate attributeName="display" fill="freeze" repeatCount="1" dur="1.042s" keyTimes="0;.24;.28;1" values="none;inline;none;none"/></g><g display="none"><g id="Tween-4f5o5r1" transform="matrix(.623 .654 -.654 .623 61.8 49.15)"><use xlink:href="#Tween-8" transform="matrix(1 -.04 .04 1 .55 1.75)"/><use xlink:href="#Tween-7" transform="matrix(1 -.031 .031 1 .4 1.4)"/><use xlink:href="#Tween-6" transform="matrix(1 -.022 .022 1 .3 .9)"/><use xlink:href="#Tween-5" transform="matrix(1 -.009 .009 1 .15 .4)"/><use xlink:href="#Tween 4_0.0"/></g><animate attributeName="display" fill="freeze" repeatCount="1" dur="1.042s" keyTimes="0;.2;.24;1" values="none;inline;none;none"/></g><g display="none"><g id="Tween-4f4o4r1" transform="matrix(.724 .567 -.567 .724 60.5 50.05)"><use xlink:href="#Tween-8" transform="matrix(1 -.026 .026 1 .35 1.15)"/><use xlink:href="#Tween-7" transform="matrix(1 -.018 .018 1 .25 .8)"/><use xlink:href="#Tween-6" transform="matrix(1 -.013 .013 1 .15 .55)"/><use xlink:href="#Tween-5" transform="matrix(1 -.005 .005 1 .05 .2)"/><use xlink:href="#Tween 4_0.0"/></g><animate attributeName="display" fill="freeze" repeatCount="1" dur="1.042s" keyTimes="0;.16;.2;1" values="none;inline;none;none"/></g><g display="none"><g id="Tween-4f3o3r1" transform="matrix(.82 .456 -.456 .82 59.6 52.15)"><use xlink:href="#Tween-8" transform="matrix(1 -.014 .014 1 .15 .6)"/><use xlink:href="#Tween-7" transform="matrix(1 -.009 .009 1 .1 .4)"/><use xlink:href="#Tween-6" transform="matrix(1 -.005 .005 1 .05 .2)"/><use xlink:href="#Tween-5" transform="matrix(1 -.001 .001 1 0 .05)"/><use xlink:href="#Tween 4_0.0"/></g><animate attributeName="display" fill="freeze" repeatCount="1" dur="1.042s" keyTimes="0;.12;.16;1" values="none;inline;none;none"/></g><g display="none"><g id="Tween-4f2o2r1" transform="matrix(.901 .325 -.325 .901 59.5 55)"><use xlink:href="#Tween-8" transform="matrix(1 -.005 .005 1 .05 .25)"/><use xlink:href="#Tween-7" transform="matrix(1 -.005 .005 1 .05 .25)"/><use xlink:href="#Tween-6" transform="matrix(1 -.001 .001 1 0 .05)"/><use xlink:href="#Tween-5"/><use xlink:href="#Tween 4_0.0"/></g><animate attributeName="display" fill="freeze" repeatCount="1" dur="1.042s" keyTimes="0;.08;.12;1" values="none;inline;none;none"/></g><g display="none"><use xlink:href="#Tween-4f0r1" transform="matrix(.964 .171 -.171 .964 60.5 58.65)"/><animate attributeName="display" fill="freeze" repeatCount="1" dur="1.042s" keyTimes="0;.04;.08;1" values="none;inline;none;none"/></g><g><use xlink:href="#Tween-4f0r1" transform="translate(62.95 63)"/><animate attributeName="display" fill="freeze" repeatCount="1" dur="1.042s" keyTimes="0;.04;1" values="inline;none;none"/></g></g></svg>