<?xml version="1.0" encoding="utf-8"?><svg id="icon-car-animated" image-rendering="auto" baseProfile="basic" version="1.1" style="background-color:#FFF" x="0px" y="0px" width="125" height="125" xmlns="http://www.w3.org/2000/svg" enable-background="new 0 0 125 125" xmlns:xlink="http://www.w3.org/1999/xlink"><g id="Scene-1r1" overflow="visible"><g id="Tween-3" transform="translate(62 105)"><animateTransform attributeName="transform" additive="replace" type="translate" dur="1.042s" keyTimes="0;.16;.36;.56;.76;.96;1" values="62,110;62,110;62,110.009;62,109.917;62,110.031;62,110;62,110" keySplines="0 0 1 1;.25 .5 .5 1;.5 0 .75 .5;.25 .5 .5 1;.5 0 .75 .5;0 0 1 1" calcMode="spline" fill="freeze"/><animateTransform attributeName="transform" additive="sum" type="scale" dur="1.042s" keyTimes="0;.16;.36;.56;.76;.96;1" values="1,1;1,1;1,1.202;1,.796;1,1.095;1,1;1,1" keySplines="0 0 1 1;.25 .5 .5 1;.5 0 .75 .5;.25 .5 .5 1;.5 0 .75 .5;0 0 1 1" calcMode="spline" fill="freeze"/><animateTransform attributeName="transform" additive="sum" type="translate" dur="1.042s" keyTimes="0;.36;.56;.76;.96;1" values="0,-5;0,-5;0,-5.05;0,-5.05;0,-5;0,-5" keySplines="0 0 1 1;.5 0 .75 .5;.25 .5 .5 1;.5 0 .75 .5;0 0 1 1" calcMode="spline" fill="freeze"/><path fill="#35373A" stroke="none" d="M-41 -5L-56 -5 -56 5 -41 5 -41 -5M56 -5L41 -5 41 5 56 5 56 -5Z"/></g><g id="Tween-2" transform="translate(62.5 68.25)"><animateTransform attributeName="transform" additive="replace" type="translate" dur="1.042s" keyTimes="0;.16;.36;.56;.76;.96;1" values="62.5,68.25;62.5,68.25;62.5,65.75;62.5,70.75;62.5,67.25;62.5,68.25;62.5,68.25" keySplines="0 0 1 1;.25 .5 .5 1;.5 0 .75 .5;.25 .5 .5 1;.5 0 .75 .5;0 0 1 1" calcMode="spline" fill="freeze"/><path fill="#35373A" stroke="none" d="M57.5 -9.25Q52.5 -14.25 45.5 -14.25L-45.5 -14.25Q-52.55 -14.25 -57.5 -9.25 -62.5 -4.25 -62.5 2.75L-62.5 24.75Q-62.5 26.85 -61.05 28.3 -59.6 29.75 -57.5 29.75L57.5 29.75Q59.55 29.75 61.05 28.3 62.5 26.85 62.5 24.75L62.5 2.75Q62.5 -4.25 57.5 -9.25M45.5 -8.25Q49.65 -8.25 52.55 -5.3 55.5 -2.35 55.5 1.75 55.5 5.9 52.55 8.85 49.65 11.75 45.5 11.75 41.35 11.75 38.4 8.85 35.5 5.9 35.5 1.75 35.5 -2.4 38.4 -5.3 41.35 -8.25 45.5 -8.25M-53.6 -5.3Q-50.65 -8.25 -46.5 -8.25 -42.35 -8.25 -39.45 -5.3 -36.5 -2.35 -36.5 1.75 -36.5 5.9 -39.45 8.85 -42.35 11.75 -46.5 11.75 -50.65 11.75 -53.6 8.85 -56.5 5.9 -56.5 1.75 -56.5 -2.4 -53.6 -5.3Z"/><path id="Layer3_0_1_STROKES" stroke="#35373A" stroke-width="5" stroke-linejoin="miter" stroke-linecap="butt" stroke-miterlimit="4" fill="none" d="M-53.2 -11.75L52.15 -11.75 44.95 -37Q44.35 -39.1 42.6 -40.4 40.85 -41.75 38.7 -41.75L-39.75 -41.75Q-41.9 -41.75 -43.65 -40.4 -45.4 -39.1 -46 -37L-53.2 -11.75Z"/><path fill="#FFCB36" stroke="none" d="M24.5 23.75L24.5 13.75 -25.5 13.75 -25.5 23.75 24.5 23.75Z"/></g><g id="Tween-1" transform="translate(62 70)" opacity="1"><animate attributeName="opacity" dur="1.042s" keyTimes="0;.16;1" values="1;0;0" fill="freeze"/><path fill="#35373A" stroke="none" d="M-46 -9Q-49.7 -9 -52.4 -6.4 -55 -3.7 -55 0 -55 3.7 -52.4 6.35 -49.7 9 -46 9 -42.3 9 -39.65 6.35 -37 3.7 -37 0 -37 -3.7 -39.65 -6.4 -42.3 -9 -46 -9M52.35 -6.4Q49.7 -9 46 -9 42.3 -9 39.6 -6.4 37 -3.7 37 0 37 3.7 39.6 6.35 42.3 9 46 9 49.7 9 52.35 6.35 55 3.7 55 0 55 -3.7 52.35 -6.4Z"/></g></g></svg>