<?xml version="1.0" encoding="utf-8"?>
<!-- Generator: Adobe Illustrator 16.0.0, SVG Export Plug-In . SVG Version: 6.00 Build 0)  -->
<!DOCTYPE svg PUBLIC "-//W3C//DTD SVG 1.1//EN" "http://www.w3.org/Graphics/SVG/1.1/DTD/svg11.dtd">
<svg version="1.1" id="Layer_1" xmlns="http://www.w3.org/2000/svg" xmlns:xlink="http://www.w3.org/1999/xlink" x="0px" y="0px"
	 width="1440px" height="300px" viewBox="0 0 1440 300" enable-background="new 0 0 1440 300" xml:space="preserve">
<g>
	<path fill="none" d="M692.5,218"/>
</g>
<g>
	<polygon fill="#FFFFFF" points="638.96,142.692 617.747,163.905 656.841,203 617,203 617,233 656.133,233 617.04,272.093 
		638.253,293.306 713.914,217.646 	"/>
	<rect x="571" y="203" fill="#FFFFFF" width="40" height="30"/>
	<rect x="521" y="203" fill="#FFFFFF" width="42" height="30"/>
	<rect x="473" y="203" fill="#FFFFFF" width="40" height="30"/>
	<rect x="149" y="223" fill="#FFFFFF" width="20" height="10"/>
	<rect x="119" y="223" fill="#FFFFFF" width="20" height="10"/>
	<rect x="209" y="223" fill="#FFFFFF" width="20" height="10"/>
	<rect x="239" y="223" fill="#FFFFFF" width="20" height="10"/>
	<rect x="179" y="223" fill="#FFFFFF" width="20" height="10"/>
	
		<rect x="22.583" y="261.765" transform="matrix(-0.7058 -0.7084 0.7084 -0.7058 -145.4588 483.1252)" fill="#FFFFFF" width="10" height="20"/>
	
		<rect x="1.333" y="282.942" transform="matrix(-0.7058 -0.7084 0.7084 -0.7058 -196.7089 504.1964)" fill="#FFFFFF" width="10" height="20"/>
	
		<rect x="43.833" y="240.588" transform="matrix(-0.7058 -0.7084 0.7084 -0.7058 -94.209 462.055)" fill="#FFFFFF" width="10" height="20"/>
	<rect x="89" y="223" fill="#FFFFFF" width="20" height="10"/>
	<polygon fill="#FFFFFF" points="59.471,232.929 66.529,240.013 73.566,233 79,233 79,223 69.434,223 	"/>
	<rect x="269" y="223" fill="#FFFFFF" width="20" height="10"/>
	<rect x="419" y="223" fill="#FFFFFF" width="20" height="10"/>
	<rect x="389" y="223" fill="#FFFFFF" width="20" height="10"/>
	<rect x="329" y="223" fill="#FFFFFF" width="20" height="10"/>
	<rect x="299" y="223" fill="#FFFFFF" width="20" height="10"/>
	<rect x="359" y="223" fill="#FFFFFF" width="20" height="10"/>
	
		<rect x="22.583" y="189.765" transform="matrix(-0.7058 -0.7084 0.7084 -0.7058 -94.4558 360.3051)" fill="#FFFFFF" width="10" height="20"/>
	<rect x="89" y="151" fill="#FFFFFF" width="20" height="10"/>
	
		<rect x="43.833" y="168.588" transform="matrix(-0.7058 -0.7084 0.7084 -0.7058 -43.206 339.2348)" fill="#FFFFFF" width="10" height="20"/>
	<polygon fill="#FFFFFF" points="59.471,160.929 66.529,168.013 73.566,161 79,161 79,151 69.434,151 	"/>
	<rect x="119" y="151" fill="#FFFFFF" width="20" height="10"/>
	
		<rect x="1.333" y="210.942" transform="matrix(-0.7058 -0.7084 0.7084 -0.7058 -145.7059 381.3762)" fill="#FFFFFF" width="10" height="20"/>
	
		<rect x="16.15" y="11.65" transform="matrix(-0.7072 0.7071 -0.7071 -0.7072 51.4135 22.0057)" fill="#FFFFFF" width="10" height="20"/>
	
		<rect x="58.576" y="54.076" transform="matrix(-0.7072 0.7071 -0.7071 -0.7072 153.8396 64.4361)" fill="#FFFFFF" width="10" height="20"/>
	
		<rect x="37.363" y="32.863" transform="matrix(-0.7072 0.7071 -0.7071 -0.7072 102.6268 43.2203)" fill="#FFFFFF" width="10" height="20"/>
	
		<rect x="79.789" y="75.289" transform="matrix(0.7072 -0.7071 0.7071 0.7072 -35.4742 84.9274)" fill="#FFFFFF" width="10" height="20"/>
	
		<rect x="117.215" y="122.716" transform="matrix(0.7071 0.7071 -0.7071 0.7071 127.5724 -52.5479)" fill="#FFFFFF" width="20" height="10"/>
	
		<rect x="-2.055" y="-1.246" transform="matrix(0.7071 0.7071 -0.7071 0.7071 3.6075 -1.2012)" fill="#FFFFFF" width="10.617" height="10"/>
	
		<rect x="101.003" y="96.503" transform="matrix(0.7072 -0.7071 0.7071 0.7072 -44.2611 106.1387)" fill="#FFFFFF" width="10" height="20"/>
	
		<rect x="428.311" y="186.542" transform="matrix(-0.7025 0.7117 -0.7117 -0.7025 886.0887 22.6442)" fill="#FFFFFF" width="20" height="20"/>
	<polygon fill="#FFFFFF" points="459.051,204 445.521,217.708 448.97,221.111 449,223 449,233 465,233 465,204 	"/>
	
		<rect x="406.959" y="165.469" transform="matrix(0.7025 -0.7117 0.7117 0.7025 -0.8215 348.9724)" fill="#FFFFFF" width="20" height="20"/>
	<rect x="207" y="141" fill="#FFFFFF" width="20" height="20"/>
	<rect x="327" y="141" fill="#FFFFFF" width="20" height="20"/>
	<rect x="297" y="141" fill="#FFFFFF" width="20" height="20"/>
	<rect x="267" y="141" fill="#FFFFFF" width="20" height="20"/>
	<rect x="237" y="141" fill="#FFFFFF" width="20" height="20"/>
	<polygon fill="#FFFFFF" points="409.749,154.303 396.27,141 387,141 387,159.951 388.063,161 395.7,168.537 	"/>
	<polygon fill="#FFFFFF" points="149,161 155,161 167,161 167,141 147.571,141 144.894,138.322 137.822,145.393 147,154.57 147,161 
			"/>
	<rect x="357" y="141" fill="#FFFFFF" width="20" height="20"/>
	<rect x="177" y="141" fill="#FFFFFF" width="20" height="20"/>
</g>
</svg>
